<?xml version="1.0" standalone="no"?>
<!DOCTYPE svg PUBLIC "-//W3C//DTD SVG 20010904//EN"
 "http://www.w3.org/TR/2001/REC-SVG-20010904/DTD/svg10.dtd">
<svg version="1.0" xmlns="http://www.w3.org/2000/svg"
 width="300.000000pt" height="300.000000pt" viewBox="0 0 1080.000000 1080.000000"
 preserveAspectRatio="xMidYMid meet">

<g transform="translate(0.000000,1080.000000) scale(0.100000,-0.100000)"
fill="#000000" stroke="none">
<path d="M5280 9130 c21 -4 -31 -8 -130 -9 -111 -1 -185 -6 -223 -16 -32 -8
-94 -19 -140 -24 -45 -5 -95 -14 -110 -20 -16 -6 -43 -11 -60 -11 -18 0 -45
-7 -61 -15 -15 -8 -41 -15 -56 -15 -16 0 -41 -5 -57 -11 -15 -7 -46 -15 -68
-19 -41 -8 -117 -32 -170 -55 -16 -8 -47 -16 -67 -20 -21 -3 -38 -10 -38 -15
0 -6 -11 -10 -25 -10 -14 0 -43 -9 -65 -20 -22 -11 -48 -20 -58 -20 -11 0 -25
-7 -32 -15 -7 -8 -21 -15 -31 -15 -9 0 -24 -7 -33 -15 -8 -8 -21 -15 -28 -15
-7 0 -24 -9 -38 -20 -14 -11 -35 -20 -47 -20 -12 0 -24 -4 -28 -9 -3 -6 -35
-24 -70 -40 -36 -17 -65 -34 -65 -39 0 -4 -12 -13 -27 -20 -51 -23 -73 -37
-73 -44 0 -5 -8 -8 -18 -8 -11 0 -27 -9 -37 -20 -10 -11 -23 -20 -29 -20 -6 0
-34 -16 -61 -35 -28 -19 -59 -41 -69 -48 -11 -6 -28 -20 -38 -29 -10 -10 -23
-18 -28 -18 -6 0 -13 -7 -16 -15 -4 -8 -11 -15 -18 -15 -10 0 -26 -12 -100
-75 -15 -14 -31 -25 -36 -25 -28 0 -520 -497 -520 -526 0 -7 -4 -14 -9 -16
-13 -5 -91 -106 -91 -118 0 -5 -4 -10 -9 -10 -4 0 -21 -19 -37 -42 -16 -24
-35 -47 -41 -51 -7 -4 -13 -15 -13 -22 0 -8 -3 -15 -8 -15 -7 0 -16 -15 -46
-76 -8 -17 -22 -36 -30 -44 -9 -7 -16 -21 -16 -31 0 -11 -3 -19 -8 -19 -4 0
-19 -21 -32 -47 -14 -26 -33 -55 -42 -65 -10 -10 -18 -25 -18 -34 0 -8 -7 -22
-15 -30 -8 -9 -15 -24 -15 -33 0 -10 -7 -24 -15 -31 -8 -7 -15 -19 -15 -26 0
-8 -16 -44 -35 -81 -19 -37 -35 -73 -35 -80 0 -7 -4 -13 -9 -13 -5 0 -12 -12
-16 -27 -3 -15 -15 -46 -26 -70 -10 -23 -19 -50 -19 -60 0 -10 -7 -27 -15 -37
-8 -11 -15 -31 -15 -44 0 -13 -7 -30 -15 -38 -8 -9 -15 -25 -15 -38 0 -12 -9
-39 -20 -61 -11 -22 -20 -55 -20 -75 0 -20 -5 -41 -10 -46 -6 -6 -13 -35 -17
-65 -3 -29 -12 -60 -20 -67 -7 -7 -13 -28 -13 -46 0 -17 -6 -56 -14 -86 -8
-30 -17 -91 -21 -135 -4 -44 -12 -86 -18 -94 -8 -9 -13 -82 -16 -209 -2 -117
-7 -189 -12 -181 -5 8 -8 -36 -8 -111 1 -78 4 -116 9 -100 5 15 9 -44 9 -145
1 -135 6 -185 21 -244 11 -41 20 -96 20 -122 0 -25 7 -63 15 -82 8 -20 15 -56
15 -81 0 -26 6 -51 15 -60 9 -8 15 -33 15 -58 0 -24 7 -53 15 -64 8 -10 15
-36 15 -56 0 -21 9 -52 20 -70 11 -18 20 -43 20 -55 0 -30 10 -54 21 -47 5 3
9 -13 9 -35 0 -22 7 -46 15 -55 8 -8 15 -25 15 -38 0 -13 9 -34 20 -48 11 -14
20 -35 20 -47 0 -30 11 -54 21 -47 5 3 9 -8 9 -24 0 -16 7 -35 15 -42 8 -7 15
-22 15 -35 0 -12 9 -30 20 -40 11 -10 20 -26 20 -37 0 -10 9 -27 20 -38 11
-11 20 -29 20 -39 0 -11 5 -21 10 -23 6 -2 12 -14 15 -28 3 -13 11 -28 20 -32
8 -5 15 -18 15 -29 0 -11 7 -22 15 -25 8 -3 17 -15 21 -27 4 -12 13 -27 20
-35 8 -7 11 -18 8 -24 -3 -5 3 -16 15 -24 12 -8 21 -21 21 -29 0 -8 6 -18 13
-22 14 -8 40 -51 53 -85 3 -10 13 -18 20 -18 8 0 14 -9 14 -19 0 -10 7 -21 15
-25 8 -3 15 -15 15 -26 0 -11 7 -20 15 -20 8 0 17 -11 21 -25 3 -14 12 -25 20
-25 8 0 14 -7 14 -15 0 -9 7 -18 15 -21 8 -4 15 -10 15 -15 0 -8 7 -18 55 -70
8 -9 15 -21 15 -27 0 -7 7 -12 15 -12 8 0 15 -7 15 -15 0 -8 7 -15 15 -15 8 0
15 -9 15 -20 0 -13 7 -20 20 -20 11 0 20 -6 20 -13 0 -17 84 -107 99 -107 6 0
11 -5 11 -11 0 -14 25 -39 39 -39 6 0 11 -5 11 -10 0 -10 16 -26 70 -72 8 -7
19 -13 25 -13 5 0 10 -6 10 -12 0 -7 17 -24 37 -38 21 -14 38 -30 38 -34 0 -5
9 -11 21 -14 12 -3 18 -10 15 -16 -4 -6 4 -13 18 -17 13 -3 27 -12 30 -20 3
-8 10 -14 16 -14 6 0 23 -12 38 -27 35 -35 88 -73 102 -73 5 0 10 -4 10 -10 0
-5 16 -17 35 -26 19 -9 35 -20 35 -25 0 -5 6 -9 14 -9 8 0 16 -7 20 -15 3 -8
15 -15 26 -15 11 0 20 -4 20 -10 0 -5 15 -16 33 -25 40 -18 70 -37 79 -50 7
-10 11 -11 43 -14 8 0 15 -8 15 -16 0 -9 9 -15 25 -15 13 0 28 -6 32 -13 8
-12 81 -50 121 -62 12 -3 20 -11 17 -16 -4 -5 4 -9 16 -9 24 0 110 -38 120
-53 4 -5 22 -12 40 -16 19 -4 33 -13 31 -19 -1 -7 11 -12 32 -12 19 0 41 -7
50 -15 8 -8 31 -15 50 -15 20 0 36 -4 36 -10 0 -5 19 -14 43 -21 23 -6 51 -15
62 -20 11 -5 32 -10 48 -11 15 -1 27 -5 27 -8 0 -11 64 -29 123 -36 33 -4 53
-10 46 -14 -6 -5 22 -11 65 -15 42 -4 76 -11 76 -16 0 -5 22 -9 49 -9 28 0 53
-4 56 -10 3 -5 25 -10 49 -10 23 0 47 -5 52 -10 6 -6 82 -13 170 -17 107 -5
143 -10 109 -13 -82 -9 272 -23 409 -17 66 4 141 7 166 8 l45 2 -50 7 c-46 6
-43 7 35 9 143 4 330 28 330 42 0 5 27 9 59 9 33 0 62 4 65 9 3 4 38 12 78 15
44 5 67 11 58 16 -8 5 8 11 46 16 32 4 61 9 64 9 15 4 47 18 62 26 10 5 27 9
37 9 11 0 22 4 26 9 3 6 25 13 50 17 24 3 50 12 56 20 6 8 17 14 24 14 23 0
120 33 136 47 8 7 21 13 28 13 7 0 36 12 65 27 79 41 84 43 105 43 11 0 21 4
23 8 4 11 115 72 120 66 3 -2 11 2 18 11 7 8 21 15 32 15 10 0 17 4 14 8 -2 4
19 18 47 31 29 13 54 27 57 31 3 4 23 17 45 29 22 11 35 21 30 21 -6 0 9 9 33
21 23 12 42 25 42 30 0 5 6 9 14 9 7 0 25 11 40 25 15 14 31 25 35 25 5 0 14
7 21 15 7 8 21 15 32 15 10 0 17 4 14 8 -3 5 4 16 15 25 10 9 19 14 19 11 0
-4 17 10 37 30 21 20 43 36 50 36 7 0 13 7 13 16 0 8 4 13 9 9 5 -3 19 7 30
21 12 15 21 24 21 21 0 -7 84 68 118 106 14 15 32 27 39 27 8 0 11 4 8 10 -3
5 3 15 15 22 11 7 20 18 20 25 0 7 4 13 10 13 8 0 37 28 158 157 22 24 37 43
34 43 -2 0 7 9 22 21 14 11 26 27 26 35 0 8 5 12 10 9 6 -3 10 0 10 8 0 8 16
30 35 50 20 21 33 37 29 37 -4 0 5 11 20 25 14 13 26 28 26 33 0 5 7 15 15 22
8 7 12 16 10 21 -3 4 4 13 15 19 11 6 20 17 20 25 0 8 5 15 10 15 6 0 10 7 10
15 0 8 4 15 9 15 5 0 18 19 30 43 12 23 21 38 21 32 0 -5 12 13 25 40 14 28
25 46 25 40 0 -5 11 12 24 39 14 26 29 53 35 59 6 6 11 19 11 29 0 10 7 21 15
24 8 4 12 10 10 15 -3 4 3 17 13 27 11 11 22 31 26 45 3 14 13 32 21 41 8 8
15 23 15 33 0 10 7 27 15 37 8 11 15 27 15 37 0 9 6 19 14 22 7 3 16 23 20 45
3 23 13 47 21 56 8 8 15 23 15 33 0 10 7 27 15 37 8 11 15 34 15 52 0 19 6 34
15 38 8 3 14 9 13 13 -3 15 14 83 23 89 5 3 9 15 9 28 0 13 7 37 16 54 8 17
21 62 28 99 7 38 15 59 17 48 3 -11 8 14 12 55 4 41 11 77 15 80 9 6 10 15 13
78 2 29 6 52 11 52 4 0 8 15 8 34 0 19 4 37 8 40 5 3 10 31 11 63 1 32 4 67 6
78 2 11 4 92 5 180 2 97 5 148 10 130 4 -18 8 36 8 130 0 94 -3 150 -8 135 -5
-15 -9 33 -10 125 -2 179 -23 380 -41 399 -5 6 -9 32 -9 58 0 26 -4 48 -10 48
-5 0 -9 3 -8 8 1 4 -2 40 -7 80 -5 47 -11 69 -16 60 -7 -10 -9 -10 -9 2 -4 78
-25 160 -42 160 -5 0 -8 15 -8 34 0 19 -4 38 -10 41 -5 3 -10 16 -10 28 0 12
-9 39 -20 60 -11 20 -20 48 -20 61 0 13 -5 26 -11 28 -6 2 -13 25 -16 51 -3
25 -10 44 -14 41 -9 -5 -13 2 -23 49 -4 15 -12 27 -19 27 -7 0 -14 14 -15 32
-2 18 -9 36 -17 41 -8 4 -15 21 -15 37 0 17 -5 29 -11 27 -7 -1 -15 11 -20 27
-4 15 -15 36 -24 46 -9 10 -17 27 -18 39 -1 11 -7 23 -14 25 -7 3 -13 15 -13
26 0 11 -7 23 -15 26 -8 4 -15 16 -15 28 0 12 -9 29 -20 39 -12 10 -17 23 -13
33 4 12 3 15 -5 10 -7 -4 -18 6 -29 28 -9 20 -20 36 -25 36 -4 0 -8 9 -8 20 0
11 -7 23 -15 26 -8 4 -15 12 -15 20 0 8 -4 14 -9 14 -5 0 -16 16 -25 35 -9 19
-21 35 -26 35 -6 0 -10 7 -10 15 0 9 -7 18 -15 21 -8 4 -15 15 -15 26 0 10 -4
17 -8 14 -5 -3 -16 8 -26 25 -9 16 -21 29 -27 29 -5 0 -9 7 -9 15 0 9 -6 18
-14 21 -8 3 -17 17 -20 30 -4 14 -11 22 -16 19 -6 -4 -13 1 -17 11 -3 9 -18
29 -33 43 -15 14 -29 34 -33 44 -3 9 -14 17 -22 17 -9 0 -14 4 -11 9 3 5 -5
17 -19 27 -13 10 -22 21 -19 26 3 4 -2 8 -10 8 -9 0 -16 7 -16 15 0 8 -7 15
-15 15 -8 0 -15 4 -15 9 0 9 -105 121 -114 121 -10 0 -56 48 -56 59 0 6 -9 11
-20 11 -11 0 -20 7 -20 15 0 8 -7 15 -15 15 -8 0 -15 7 -15 15 0 8 -5 15 -12
15 -6 0 -18 7 -27 15 -45 44 -97 85 -108 85 -7 0 -13 5 -13 10 0 6 -11 16 -25
22 -14 6 -25 17 -25 25 0 7 -11 13 -25 13 -16 0 -25 6 -25 15 0 8 -9 15 -20
15 -11 0 -20 6 -20 14 0 8 -11 17 -25 20 -14 4 -25 11 -25 16 0 6 -9 10 -20
10 -10 0 -24 9 -30 20 -6 11 -17 20 -25 20 -8 0 -19 9 -25 20 -6 12 -21 20
-35 20 -14 0 -25 4 -25 9 0 5 -13 14 -30 20 -16 5 -30 15 -30 21 0 6 -4 9 -10
5 -5 -3 -19 4 -31 16 -19 19 -34 26 -62 28 -5 1 -6 5 -3 10 3 5 -10 12 -30 15
-19 4 -38 14 -41 22 -3 7 -15 14 -28 14 -12 0 -30 9 -40 20 -10 11 -27 20 -37
20 -11 0 -26 7 -34 15 -9 8 -26 15 -39 15 -12 0 -25 7 -29 15 -3 9 -18 15 -39
15 -19 0 -42 8 -55 20 -12 11 -33 20 -47 20 -15 0 -33 7 -41 15 -9 8 -29 15
-45 15 -17 0 -37 7 -45 15 -9 8 -27 15 -40 15 -14 0 -42 9 -64 20 -22 11 -52
20 -68 20 -17 0 -43 7 -58 15 -16 8 -48 15 -71 15 -23 0 -43 4 -45 10 -1 5
-38 14 -81 20 -43 5 -85 14 -95 18 -9 5 -49 12 -89 15 -40 3 -82 12 -95 19
-16 9 -82 14 -213 17 -107 2 -179 7 -165 12 14 4 -40 7 -120 7 -88 -1 -131 -4
-110 -8z m365 -136 c99 -4 167 -11 150 -14 -21 -4 -2 -8 60 -13 95 -7 277 -33
260 -37 -9 -2 61 -16 177 -36 21 -4 36 -10 33 -13 -2 -4 34 -16 80 -26 46 -10
82 -22 80 -26 -3 -4 17 -10 45 -14 27 -4 52 -11 56 -16 3 -5 20 -9 37 -9 24 0
28 -3 17 -10 -12 -8 -12 -10 5 -10 33 0 109 -30 123 -47 6 -9 12 -14 12 -10 0
7 108 -32 125 -45 19 -15 164 -88 175 -88 5 0 19 -9 30 -20 12 -12 24 -18 29
-16 4 3 17 -2 27 -12 10 -9 38 -26 62 -36 23 -11 42 -23 42 -28 0 -5 14 -14
30 -19 17 -6 30 -15 30 -20 0 -5 7 -9 15 -9 8 0 15 -4 15 -9 0 -5 16 -16 35
-25 19 -9 35 -21 35 -25 0 -5 8 -11 18 -15 19 -6 46 -23 73 -46 10 -8 30 -24
44 -35 15 -11 33 -26 40 -32 8 -7 19 -13 25 -13 6 0 8 -4 5 -10 -3 -5 1 -10 9
-10 8 0 23 -11 34 -25 11 -14 24 -25 28 -25 5 0 42 -31 82 -70 40 -38 78 -70
84 -70 6 0 9 -3 6 -6 -6 -5 77 -94 88 -94 9 0 49 -54 46 -62 -1 -5 3 -8 8 -8
13 0 90 -82 90 -95 0 -6 9 -16 20 -23 11 -7 20 -19 20 -27 0 -8 6 -15 13 -15
7 0 21 -14 31 -31 10 -18 26 -39 35 -49 30 -32 51 -60 51 -69 0 -4 9 -16 20
-26 11 -10 20 -24 20 -32 0 -7 4 -13 9 -13 5 0 12 -8 15 -18 4 -10 14 -27 24
-38 23 -27 41 -56 48 -76 4 -10 10 -18 14 -18 4 0 16 -19 26 -42 10 -24 28
-53 38 -66 11 -12 21 -30 22 -39 2 -9 6 -19 11 -22 13 -10 43 -71 43 -89 0
-15 2 -15 10 -2 8 12 10 9 10 -12 0 -16 4 -28 8 -28 5 0 14 -18 21 -40 6 -22
16 -40 21 -40 6 0 10 -6 10 -14 0 -8 9 -33 19 -57 11 -24 17 -47 15 -51 -3 -4
-1 -8 5 -8 5 0 18 -25 27 -55 10 -30 21 -55 26 -55 4 0 8 -10 8 -22 1 -13 7
-34 15 -48 8 -14 14 -37 15 -52 0 -16 4 -28 9 -28 5 0 15 -26 21 -57 19 -95
22 -103 31 -97 5 3 9 -7 9 -23 0 -15 7 -50 15 -77 8 -27 15 -64 15 -82 0 -18
4 -34 10 -36 5 -1 14 -39 20 -83 7 -44 16 -96 21 -116 5 -20 9 -70 9 -110 0
-44 4 -69 9 -61 14 23 30 -489 17 -553 -3 -11 -5 -65 -5 -120 -1 -68 -4 -95
-11 -85 -7 10 -10 -7 -10 -57 0 -40 -4 -92 -9 -115 -6 -24 -15 -79 -21 -123
-7 -44 -16 -81 -21 -83 -5 -2 -9 -21 -9 -42 0 -20 -7 -54 -15 -73 -8 -20 -15
-50 -15 -67 0 -16 -4 -30 -9 -30 -5 0 -12 -19 -16 -42 -9 -61 -25 -108 -36
-108 -5 0 -9 -11 -9 -25 0 -14 -7 -42 -15 -62 -8 -19 -15 -44 -15 -54 0 -11
-4 -19 -9 -19 -5 0 -14 -20 -20 -44 -6 -25 -17 -50 -23 -58 -15 -16 -38 -72
-45 -110 -3 -16 -9 -28 -13 -28 -4 0 -18 -27 -31 -59 -13 -33 -27 -57 -31 -55
-4 3 -8 -1 -8 -10 0 -14 -30 -76 -41 -86 -3 -3 -14 -23 -25 -45 -10 -22 -26
-49 -36 -59 -10 -11 -18 -25 -18 -32 0 -7 -6 -19 -13 -26 -7 -7 -16 -20 -20
-28 -18 -36 -37 -64 -37 -55 0 5 -10 -8 -21 -30 -12 -22 -25 -42 -30 -43 -5
-2 -9 -9 -9 -16 0 -7 -9 -21 -20 -31 -11 -10 -20 -23 -20 -29 0 -6 -9 -17 -20
-24 -12 -7 -19 -16 -16 -21 3 -4 -4 -14 -15 -21 -10 -8 -19 -18 -19 -22 0 -4
-11 -20 -25 -35 -13 -15 -38 -43 -55 -62 -16 -19 -30 -37 -30 -42 0 -9 -349
-359 -359 -359 -6 0 -34 -24 -113 -95 -15 -14 -29 -25 -33 -25 -7 0 -26 -15
-61 -48 -14 -12 -29 -22 -33 -22 -4 0 -16 -9 -26 -20 -10 -11 -24 -20 -31 -20
-7 0 -14 -4 -16 -9 -1 -5 -21 -18 -43 -30 -22 -11 -35 -21 -30 -21 9 0 -19
-19 -55 -37 -8 -4 -21 -13 -28 -20 -7 -7 -19 -13 -26 -13 -7 0 -21 -8 -32 -18
-22 -20 -86 -52 -105 -52 -7 0 -10 -3 -6 -6 7 -7 -60 -44 -81 -44 -7 0 -11 -4
-8 -8 3 -5 -24 -19 -59 -33 -35 -13 -61 -27 -59 -31 3 -5 -5 -8 -18 -8 -13 0
-32 -7 -42 -15 -11 -8 -30 -15 -43 -15 -13 0 -23 -4 -23 -9 0 -8 -21 -19 -50
-26 -43 -12 -60 -19 -60 -25 0 -4 -12 -10 -27 -13 -63 -13 -123 -32 -123 -38
0 -4 -36 -15 -80 -25 -44 -9 -80 -21 -80 -25 0 -5 -11 -9 -24 -9 -13 0 -40 -7
-59 -15 -20 -8 -56 -15 -81 -15 -24 0 -46 -4 -48 -9 -1 -5 -39 -14 -83 -21
-44 -6 -99 -15 -123 -21 -23 -5 -67 -9 -96 -9 -30 0 -56 -4 -58 -9 -9 -26
-761 -26 -778 -1 -3 5 -37 10 -75 13 -110 7 -290 36 -293 47 -2 5 -18 10 -36
10 -17 0 -58 7 -89 15 -32 8 -67 15 -77 15 -11 0 -20 4 -20 9 0 5 -15 12 -32
16 -69 13 -118 28 -118 36 0 5 -12 9 -27 9 -16 1 -39 7 -53 15 -14 8 -38 14
-53 15 -16 0 -26 4 -23 8 3 5 -19 16 -49 26 -30 9 -55 22 -55 27 0 6 -4 8 -8
5 -4 -2 -27 4 -51 15 -24 10 -49 19 -57 19 -8 0 -14 3 -14 8 0 8 -91 52 -108
52 -6 0 -12 3 -14 8 -5 12 -65 42 -83 42 -9 0 -13 5 -10 10 3 6 -3 10 -14 10
-11 0 -31 11 -45 25 -14 14 -29 25 -34 25 -13 0 -89 39 -77 40 11 0 -30 26
-57 36 -10 3 -18 10 -18 14 0 5 -18 16 -40 26 -21 10 -37 21 -34 26 3 4 -1 8
-9 8 -8 0 -23 8 -35 18 -12 9 -33 26 -47 37 -14 11 -38 30 -52 43 -14 12 -29
22 -33 22 -4 0 -31 21 -59 48 -27 26 -71 63 -95 82 -25 19 -45 41 -46 48 0 6
-6 12 -12 12 -13 1 -58 34 -58 44 0 2 -47 53 -105 113 -121 125 -135 141 -135
149 0 3 -11 15 -25 26 -14 11 -25 26 -25 34 0 8 -5 12 -10 9 -5 -3 -10 -1 -10
5 0 11 -9 24 -43 61 -9 10 -14 19 -11 19 4 0 -4 10 -18 23 -13 12 -27 29 -31
37 -13 28 -32 55 -45 63 -6 4 -12 14 -12 21 0 7 -8 21 -17 32 -23 26 -40 53
-53 82 -5 12 -13 22 -18 22 -4 0 -17 19 -27 42 -10 24 -27 51 -37 62 -10 11
-18 28 -18 37 0 10 -6 22 -13 26 -15 10 -47 70 -47 89 0 8 -4 14 -8 14 -4 0
-16 23 -26 50 -10 28 -21 50 -25 50 -8 0 -41 91 -41 114 0 9 -4 16 -9 16 -11
0 -51 96 -51 124 0 15 -3 17 -9 8 -5 -9 -10 -1 -14 25 -8 48 -35 141 -37 128
-2 -9 -22 59 -40 135 -4 19 -9 31 -10 25 -3 -13 -17 51 -33 148 -7 43 -16 75
-20 71 -4 -4 -7 -1 -7 7 -1 41 -13 128 -21 153 -5 16 -9 61 -10 100 -1 47 -3
62 -8 46 -14 -49 -31 543 -17 605 2 11 5 74 7 140 1 76 4 107 8 85 6 -27 9
-13 14 60 8 121 31 269 39 250 4 -8 7 3 7 26 1 22 8 63 16 90 8 27 15 63 15
79 0 23 3 27 10 15 7 -11 10 -6 10 22 0 20 4 39 9 42 4 3 11 28 15 56 4 27 10
50 15 50 5 0 11 15 15 33 8 46 34 134 36 122 1 -15 30 55 30 74 0 10 8 26 17
37 10 11 19 26 21 34 6 35 75 187 109 242 13 21 23 44 23 53 0 8 4 15 9 15 5
0 13 13 19 28 5 16 16 35 23 43 8 8 23 32 34 54 11 22 22 42 25 45 10 10 50
69 50 74 0 3 8 15 17 26 10 11 18 24 18 29 0 10 32 54 68 93 15 17 27 33 27
37 0 3 14 22 30 41 16 19 30 38 30 42 0 3 18 25 40 48 22 23 40 45 40 48 0 4
20 28 45 54 25 27 45 54 45 60 0 9 3 8 10 -2 8 -13 10 -13 10 1 0 19 168 189
187 189 7 0 12 3 11 8 -3 8 93 102 103 102 4 0 28 20 55 45 26 25 50 45 54 45
4 0 20 11 36 25 16 14 32 25 35 25 4 0 20 12 37 28 39 35 83 67 93 67 5 0 18
8 29 18 11 9 24 17 28 17 4 0 22 14 40 30 18 17 38 30 44 30 13 0 68 31 92 52
10 10 23 15 27 12 5 -2 16 3 26 13 10 10 38 27 63 38 25 11 51 25 58 32 7 7
31 17 52 23 22 6 40 14 40 18 0 4 25 16 55 27 30 10 55 22 55 26 0 5 34 19 60
23 25 4 90 31 90 36 0 4 12 10 28 13 63 14 122 32 122 39 0 4 23 10 50 14 28
4 53 11 56 15 3 5 22 9 42 9 23 0 32 3 24 8 -12 8 137 42 181 42 9 0 17 4 17
9 0 5 35 12 78 17 42 4 80 8 84 8 3 1 10 4 14 9 4 4 37 7 73 7 46 0 62 3 51
10 -10 7 20 10 95 11 61 1 155 4 210 8 111 7 133 7 390 -5z"/>
<path d="M5284 8696 c-33 -22 -53 -26 -68 -10 -9 8 -17 10 -21 5 -3 -6 -12 -8
-19 -5 -19 7 -21 -10 -18 -147 2 -92 6 -119 17 -119 7 0 16 -6 19 -12 5 -10 7
-10 12 0 3 6 12 12 20 12 18 0 19 66 2 73 -10 4 -10 6 0 6 8 1 12 18 12 49 1
53 17 82 49 82 11 0 21 5 21 10 0 6 7 10 15 10 20 0 19 16 -1 24 -8 3 -13 10
-9 15 9 16 -11 21 -31 7z"/>
<path d="M5465 8690 c-3 -5 -13 -10 -21 -10 -20 0 -53 -39 -54 -62 0 -10 -4
-18 -10 -18 -6 0 -10 -27 -10 -61 0 -37 4 -58 10 -54 6 3 10 -3 10 -15 0 -30
42 -68 84 -75 43 -8 109 2 101 16 -4 5 3 9 14 9 20 0 22 5 21 48 -1 14 -50 21
-57 8 -5 -7 -18 -18 -30 -25 -27 -14 -63 0 -63 24 0 8 -5 15 -11 15 -6 0 -5 6
3 13 10 10 33 13 83 10 l70 -5 13 31 c25 56 -6 120 -71 149 -34 15 -74 16 -82
2z m69 -65 c15 -14 32 -25 39 -26 7 0 1 -5 -13 -11 -35 -16 -94 -16 -109 -1
-7 8 -8 13 -1 13 5 0 10 7 10 15 0 12 25 34 41 35 3 0 18 -11 33 -25z"/>
<path d="M5754 8665 c-4 -18 -9 -23 -14 -14 -5 6 -11 -23 -15 -67 -4 -43 -11
-98 -15 -121 -4 -24 -4 -43 0 -43 4 0 10 -10 13 -22 5 -16 9 -19 19 -10 7 5
18 11 23 11 12 1 12 4 14 72 1 30 5 48 11 44 6 -4 10 5 10 20 0 38 26 82 47
80 35 -3 63 -16 65 -31 6 -58 -2 -145 -12 -139 -21 13 -9 -45 15 -69 14 -14
25 -20 25 -14 0 6 7 16 16 23 12 8 19 39 26 106 11 112 2 145 -42 162 -17 6
-30 15 -30 19 0 9 -32 10 -54 2 -9 -3 -16 -12 -16 -20 0 -20 -10 -17 -31 8
-11 11 -19 18 -19 13 0 -4 -7 -2 -15 5 -12 10 -15 7 -21 -15z"/>
<path d="M4883 8654 c-31 -14 -53 -30 -53 -39 0 -8 -5 -15 -10 -15 -7 0 -6 -5
2 -13 15 -17 42 -15 65 5 28 23 45 26 78 12 25 -10 27 -14 13 -19 -10 -4 -18
-13 -18 -20 0 -14 -22 -25 -51 -25 -11 0 -19 -7 -19 -16 0 -10 -6 -14 -14 -11
-20 8 -56 -34 -56 -65 0 -38 33 -73 71 -76 18 -2 37 -8 41 -15 5 -8 8 -7 8 5
0 20 29 29 85 27 22 -1 45 -1 51 0 15 1 8 62 -9 73 -9 6 -8 8 3 8 11 0 12 3 3
8 -6 4 -13 33 -14 65 -1 32 -6 60 -11 63 -5 3 -6 9 -3 14 8 13 -55 54 -84 56
-14 0 -50 -9 -78 -22z m111 -183 c-1 -14 -9 -30 -17 -36 -7 -5 -12 -17 -10
-25 4 -13 3 -13 -7 0 -9 12 -13 12 -17 2 -3 -9 -12 -5 -29 13 -13 14 -24 29
-24 34 0 14 24 31 45 31 15 0 17 2 6 9 -11 7 -10 10 5 13 30 6 51 -12 48 -41z"/>
<path d="M4679 8611 c-23 -14 -26 -23 -28 -81 -3 -77 -16 -109 -26 -67 -4 15
-11 25 -15 22 -4 -3 -13 9 -19 26 -6 18 -21 42 -34 54 -22 23 -23 23 -46 5
-21 -15 -24 -25 -22 -75 1 -32 -1 -66 -4 -76 -7 -21 -25 -26 -25 -6 0 7 -9 18
-20 25 -11 7 -20 18 -20 25 0 7 -12 27 -27 43 -28 31 -63 35 -63 8 0 -8 -6
-14 -12 -14 -7 0 -5 -5 5 -11 9 -5 17 -17 17 -24 0 -8 4 -15 8 -15 4 0 16 -15
27 -32 10 -18 21 -35 24 -38 3 -3 15 -21 25 -40 36 -64 59 -77 100 -59 19 9
22 17 19 58 -4 49 10 101 27 101 5 0 10 -9 10 -19 0 -11 9 -26 19 -33 11 -8
23 -26 26 -41 4 -15 13 -27 20 -27 7 0 15 -6 17 -12 3 -9 9 -8 21 4 9 9 17 21
17 26 0 6 4 12 9 14 13 4 17 239 5 259 -8 15 -11 15 -35 0z"/>
<path d="M6158 8595 c-20 -6 -43 -18 -50 -26 -29 -29 -48 -83 -48 -135 0 -45
4 -57 31 -83 17 -17 39 -31 50 -31 10 0 19 -4 19 -10 0 -5 18 -10 40 -10 22 0
40 5 40 10 0 6 9 10 20 10 16 0 19 6 16 30 -3 31 -16 54 -16 30 0 -10 -3 -10
-14 -1 -10 8 -16 9 -21 1 -9 -14 -67 -12 -85 3 -19 15 -19 45 0 57 23 15 50
12 50 -5 0 -10 11 -15 35 -15 19 0 35 -4 35 -10 0 -5 5 -10 11 -10 5 0 7 5 4
10 -3 6 -1 10 4 10 6 0 11 -5 11 -11 0 -6 7 -4 15 5 9 9 16 35 16 64 1 41 -3
55 -26 80 -15 17 -31 29 -36 27 -4 -3 -9 0 -11 6 -6 17 -48 19 -90 4z m91 -77
c11 -30 2 -41 -34 -44 -35 -2 -65 14 -65 36 0 22 30 38 67 36 15 -1 26 -10 32
-28z m-22 -204 c-3 -3 -12 -4 -19 -1 -8 3 -5 6 6 6 11 1 17 -2 13 -5z"/>
<path d="M4016 8507 c-17 -18 -18 -31 -10 -181 9 -179 10 -199 13 -206 2 -3 4
-13 6 -23 4 -22 15 -35 15 -19 0 7 9 12 20 12 18 0 20 7 20 55 0 42 3 55 15
55 8 0 15 5 15 10 0 6 7 10 15 10 8 0 29 9 46 19 17 11 38 17 45 14 8 -3 14 0
14 6 0 12 9 6 55 -36 16 -16 25 -19 29 -10 5 9 7 9 12 0 7 -16 34 8 34 31 0
16 -56 76 -71 76 -5 0 -9 4 -9 9 0 5 -10 13 -21 16 -17 6 -19 9 -8 16 8 5 9 9
3 9 -16 0 -104 84 -104 98 0 7 -7 12 -15 12 -9 0 -18 7 -21 15 -4 8 -12 15
-19 15 -7 0 -16 6 -18 13 -4 9 -8 8 -16 -3 -7 -10 -14 -11 -18 -4 -5 6 -14 3
-27 -9z m124 -132 c12 -4 19 -9 16 -13 -3 -3 1 -14 11 -24 15 -17 15 -18 0
-18 -10 0 -17 -6 -17 -14 0 -15 -42 -27 -60 -16 -6 4 -12 25 -14 47 -1 21 -6
45 -10 51 -5 8 0 12 13 12 12 0 21 6 22 13 0 6 4 2 9 -10 5 -12 18 -24 30 -28z"/>
<path d="M6460 8488 c0 -4 -7 -8 -15 -8 -8 0 -15 -4 -15 -9 0 -5 -7 -17 -17
-26 -14 -14 -14 -18 -2 -26 12 -8 12 -10 -1 -19 -9 -6 -10 -10 -3 -10 6 0 14
-8 18 -19 3 -10 21 -27 40 -37 19 -10 35 -22 35 -26 0 -5 8 -8 18 -9 10 0 12
-3 5 -6 -16 -6 -17 -24 -2 -20 6 1 14 -4 16 -10 3 -7 -1 -14 -9 -14 -60 -6
-68 -4 -90 26 -12 16 -22 33 -20 38 4 13 -49 7 -64 -8 -9 -8 -11 -15 -5 -15 5
0 16 -12 23 -27 7 -14 22 -31 33 -37 10 -6 25 -17 33 -23 13 -13 37 -16 96
-15 55 1 96 79 64 118 -28 33 -87 84 -97 84 -10 0 -19 30 -14 46 6 18 43 4 76
-27 35 -33 84 -36 79 -4 -4 25 -56 66 -102 82 -38 13 -80 14 -80 1z"/>
<path d="M6748 8348 c-10 -10 -18 -25 -18 -33 0 -8 -4 -15 -10 -15 -14 0 -12
-39 3 -54 6 -7 21 -24 31 -39 11 -14 23 -24 28 -21 4 3 8 0 8 -5 0 -6 7 -11
15 -11 8 0 12 -6 9 -14 -3 -8 0 -17 6 -21 15 -9 -6 -25 -34 -25 -17 0 -77 43
-76 55 1 23 -2 26 -17 21 -9 -4 -20 -1 -25 6 -6 10 -8 8 -8 -4 0 -10 -5 -18
-10 -18 -6 0 -5 -9 2 -22 25 -44 124 -115 132 -95 3 9 5 9 5 0 1 -15 51 -18
51 -3 0 6 5 10 10 10 6 0 20 9 32 20 12 11 18 20 14 20 -5 0 -3 7 4 15 10 12
10 18 0 30 -7 8 -9 15 -4 15 4 0 -1 9 -12 20 -10 10 -24 25 -30 32 -6 7 -23
22 -38 32 -31 23 -35 56 -6 56 11 0 20 6 21 13 0 6 4 2 9 -10 5 -13 14 -23 20
-23 5 0 10 -6 10 -14 0 -12 19 -26 40 -30 3 -1 10 -5 16 -9 13 -8 26 27 18 48
-12 30 -77 69 -123 73 -25 2 -48 7 -51 11 -3 4 -13 -1 -22 -11z"/>
<path d="M5205 8260 c13 -6 -14 -9 -80 -10 -107 -1 -311 -30 -299 -43 4 -4
-15 -7 -43 -7 -27 0 -53 -3 -57 -7 -4 -5 -11 -8 -14 -9 -55 -5 -111 -18 -106
-25 3 -5 -3 -9 -13 -10 -33 -1 -68 -9 -106 -24 -20 -8 -46 -15 -57 -15 -11 0
-20 -4 -20 -10 0 -5 -8 -10 -18 -10 -10 0 -22 -3 -26 -7 -4 -5 -11 -8 -14 -9
-26 -3 -62 -18 -62 -25 0 -5 -10 -9 -22 -9 -13 0 -32 -7 -42 -15 -11 -8 -28
-15 -38 -15 -10 0 -18 -4 -18 -9 0 -5 -22 -17 -49 -27 -28 -10 -48 -21 -45
-26 3 -4 -6 -8 -20 -8 -14 0 -26 -4 -26 -9 0 -5 -10 -13 -22 -17 -12 -3 -30
-15 -41 -25 -11 -10 -23 -16 -27 -14 -4 2 -16 -3 -26 -13 -11 -9 -39 -28 -64
-41 -25 -14 -49 -31 -53 -38 -5 -7 -12 -11 -16 -8 -5 2 -14 -2 -21 -10 -7 -8
-17 -15 -22 -15 -6 0 -19 -11 -30 -25 -10 -13 -22 -24 -26 -22 -8 2 -24 -10
-78 -60 -20 -18 -38 -33 -41 -33 -3 0 -16 -10 -28 -22 -12 -13 -39 -37 -61
-54 -56 -46 -114 -103 -114 -114 0 -6 -4 -10 -9 -10 -5 0 -24 -16 -43 -36 -18
-20 -45 -49 -60 -65 -14 -15 -24 -30 -22 -32 3 -2 -7 -12 -21 -21 -14 -9 -23
-21 -20 -26 3 -5 -4 -11 -15 -15 -11 -3 -20 -11 -20 -16 0 -6 -6 -17 -12 -24
-30 -33 -38 -45 -38 -54 0 -5 -11 -18 -25 -29 -14 -11 -25 -24 -25 -30 0 -5
-7 -15 -15 -22 -8 -7 -13 -16 -10 -20 3 -4 -7 -20 -20 -36 -42 -48 -45 -53
-45 -69 0 -9 -4 -14 -8 -11 -5 3 -17 -15 -27 -40 -10 -24 -21 -44 -24 -44 -4
0 -15 -22 -26 -49 -10 -28 -22 -48 -25 -46 -4 2 -14 -18 -24 -46 -10 -27 -22
-49 -26 -49 -5 0 -11 -13 -15 -30 -4 -16 -11 -32 -16 -35 -5 -4 -9 -17 -9 -31
0 -13 -4 -24 -10 -24 -5 0 -10 -8 -10 -17 0 -10 -7 -31 -15 -47 -8 -15 -15
-35 -15 -42 0 -8 -4 -14 -9 -14 -5 0 -12 -25 -16 -55 -6 -54 -20 -72 -28 -37
-6 26 -20 -74 -15 -108 3 -16 1 -30 -4 -30 -4 0 -8 36 -8 80 0 97 -13 121 -73
141 -23 7 -44 16 -47 19 -6 7 -88 29 -139 37 -23 4 -29 8 -20 14 10 6 5 9 -16
10 -64 3 -75 -5 -75 -60 0 -21 -7 -40 -20 -51 -30 -26 -31 -106 -2 -126 12 -8
22 -21 22 -28 0 -16 125 -47 162 -39 35 7 75 53 84 97 5 29 3 36 -10 36 -9 0
-16 4 -16 8 0 5 6 9 13 9 6 0 22 3 34 7 18 6 25 2 35 -18 6 -14 17 -26 25 -26
10 0 10 -4 -2 -17 -67 -77 -79 -103 -62 -130 6 -10 12 -10 30 0 29 17 43 30
49 47 3 8 8 -3 12 -25 4 -23 2 -53 -3 -69 -6 -15 -11 -44 -11 -64 0 -24 -3
-32 -9 -24 -5 9 -10 -10 -14 -50 -4 -35 -11 -85 -16 -113 -6 -27 -10 -88 -11
-135 -1 -57 -4 -78 -10 -65 -5 12 -8 -75 -8 -215 0 -132 3 -224 8 -210 6 18 8
3 9 -50 2 -95 35 -337 41 -295 2 11 7 -7 11 -40 14 -100 35 -191 40 -175 3 8
9 -12 13 -44 3 -33 11 -65 17 -72 9 -11 21 -53 22 -81 0 -7 3 -10 7 -8 4 2 15
-23 25 -55 10 -33 22 -60 27 -60 4 0 8 -10 8 -22 0 -13 7 -32 15 -42 8 -11 15
-27 15 -37 0 -9 7 -19 15 -23 8 -3 15 -9 14 -13 -3 -13 25 -73 33 -73 4 0 8
-6 8 -14 0 -18 30 -74 53 -98 10 -10 15 -22 13 -27 -3 -4 4 -17 14 -29 11 -12
20 -28 20 -37 0 -8 5 -15 10 -15 6 0 15 -11 20 -25 5 -14 14 -25 19 -25 5 0
11 -10 15 -22 3 -13 21 -41 41 -62 19 -22 35 -44 35 -49 0 -4 6 -15 13 -22 6
-8 28 -33 47 -56 19 -23 53 -61 75 -85 22 -24 58 -64 80 -90 56 -66 87 -94
105 -94 12 0 13 -2 1 -9 -11 -7 -10 -10 6 -15 11 -3 47 -33 81 -66 34 -33 66
-61 70 -62 4 -2 6 -6 5 -10 -2 -4 6 -10 17 -13 11 -4 20 -11 20 -16 0 -5 10
-9 22 -9 12 0 18 -3 15 -7 -4 -3 11 -17 33 -30 23 -14 37 -29 34 -35 -4 -6 -2
-8 4 -4 6 3 17 0 24 -8 8 -7 24 -17 36 -20 12 -4 20 -11 17 -16 -3 -5 6 -12
20 -16 14 -3 32 -16 40 -27 8 -12 15 -16 15 -9 0 8 8 5 22 -8 12 -11 27 -20
34 -20 7 0 19 -6 26 -13 7 -6 32 -21 55 -32 22 -11 40 -22 38 -26 -2 -3 19
-14 48 -24 29 -10 55 -22 58 -27 3 -5 12 -10 20 -12 8 -1 31 -10 53 -19 21 -9
42 -17 47 -17 5 0 9 -4 9 -8 0 -5 27 -16 60 -26 33 -10 60 -22 60 -27 0 -5 11
-9 24 -9 13 0 40 -7 59 -15 20 -8 50 -15 67 -15 17 0 29 -4 26 -9 -3 -4 32
-16 77 -25 45 -9 84 -21 85 -26 2 -6 18 -10 35 -10 18 0 70 -7 117 -15 47 -8
104 -15 128 -15 24 0 41 -4 38 -9 -8 -12 111 -16 389 -15 164 1 240 5 243 13
2 6 23 11 47 11 24 0 79 7 122 15 43 8 93 15 111 15 17 0 32 4 32 8 0 5 37 16
82 25 46 9 84 21 86 27 2 5 18 10 35 10 18 1 43 7 57 15 14 8 36 14 48 15 13
0 36 6 50 14 15 8 42 20 60 26 17 7 32 16 32 21 0 5 10 9 23 9 12 1 40 9 62
20 22 11 46 19 53 20 6 0 12 3 12 8 0 4 21 16 48 26 26 11 49 22 52 25 3 3 23
15 45 26 22 11 46 26 53 33 8 7 17 10 22 7 4 -3 13 2 20 10 7 8 19 15 26 15 8
0 14 4 14 8 0 5 16 17 35 28 19 10 35 21 35 25 0 4 8 9 18 13 21 7 47 24 79
53 14 12 34 25 44 28 11 4 17 11 14 16 -4 5 0 9 9 9 8 0 34 18 57 40 24 22 50
40 59 40 13 0 13 1 0 10 -13 9 -13 10 0 10 9 0 46 29 83 65 37 36 72 65 77 65
6 0 10 5 10 11 0 6 34 45 75 86 41 41 75 78 75 82 0 4 18 26 40 50 22 23 40
49 40 57 0 9 3 13 8 11 4 -3 18 13 32 34 13 21 28 39 32 39 4 0 8 7 8 15 0 8
4 15 10 15 5 0 12 11 16 25 3 14 10 25 14 25 5 0 11 8 14 18 4 10 14 27 24 38
10 10 26 37 36 59 11 22 22 42 25 45 3 3 15 23 26 45 11 22 22 42 25 45 3 3
14 25 25 50 11 25 22 47 25 50 4 3 17 32 30 65 13 33 28 63 33 66 5 3 8 8 7
10 -1 2 3 17 9 32 6 16 11 35 11 43 0 8 7 17 16 21 13 5 13 7 2 14 -10 7 -10
9 0 9 6 0 12 12 12 28 1 15 7 38 15 52 8 14 14 40 15 58 0 17 4 32 9 32 10 0
17 25 27 86 3 21 12 52 20 68 8 16 14 41 14 55 0 14 7 61 15 104 8 43 15 96
15 117 0 22 5 40 13 42 16 6 18 615 1 626 -6 4 -14 43 -18 87 -7 96 -28 220
-43 255 -5 14 -16 55 -23 93 -7 37 -16 67 -21 67 -5 0 -9 11 -9 25 0 14 -7 42
-15 62 -8 19 -15 46 -15 59 0 13 -4 24 -10 24 -5 0 -17 27 -27 60 -9 33 -20
60 -25 60 -4 0 -8 6 -8 13 0 7 -9 29 -20 50 -11 20 -20 44 -20 52 0 8 -4 15
-8 15 -4 0 -16 25 -27 55 -10 30 -21 55 -24 55 -4 0 -15 17 -26 38 -11 20 -26
43 -32 50 -7 7 -13 19 -13 26 0 7 -9 22 -20 34 -13 14 -16 22 -8 22 7 0 2 7
-10 16 -12 8 -22 21 -22 27 0 7 -9 20 -20 30 -11 9 -20 24 -20 32 0 8 -4 15
-10 15 -5 0 -10 9 -10 21 0 11 -4 18 -8 15 -5 -3 -19 12 -33 33 -13 22 -27 37
-31 34 -5 -2 -8 2 -8 9 0 7 -15 29 -33 49 -39 44 -91 109 -95 120 -5 11 -113
118 -154 152 -17 15 -40 39 -50 54 -10 16 -18 23 -18 17 0 -7 -21 8 -47 32
-95 88 -102 94 -109 94 -8 0 -88 62 -92 72 -2 5 -10 8 -18 8 -8 0 -14 4 -14
10 0 5 -11 12 -25 16 -14 3 -25 10 -25 15 0 5 -10 14 -22 19 -29 12 -56 30
-81 52 -11 10 -23 15 -27 13 -4 -2 -16 3 -27 13 -26 23 -81 52 -99 52 -8 0
-14 3 -14 8 0 8 -55 35 -79 38 -8 2 -17 6 -20 11 -8 11 -60 35 -86 40 -10 2
-22 7 -25 12 -3 5 -32 17 -65 27 -33 10 -62 22 -65 26 -3 4 -18 9 -34 12 -15
3 -33 9 -39 15 -7 5 -37 12 -67 16 -54 7 -77 14 -49 16 21 1 -109 29 -169 36
-30 3 -49 9 -42 13 6 4 -13 10 -42 13 -29 4 -82 11 -118 17 -36 5 -103 10
-150 11 -64 1 -76 3 -50 9 19 4 -64 8 -185 8 -131 0 -212 -3 -200 -8z m385
-89 c52 -2 69 -5 55 -11 -14 -6 1 -9 50 -10 39 -1 95 -6 125 -11 30 -4 88 -14
128 -20 39 -7 72 -16 72 -20 0 -5 7 -9 16 -9 25 0 158 -33 164 -40 3 -4 16
-10 30 -13 52 -12 115 -32 120 -37 3 -3 24 -12 47 -18 23 -7 48 -18 55 -26 7
-7 25 -15 38 -18 32 -8 94 -31 100 -39 3 -3 23 -14 45 -25 22 -10 42 -20 45
-23 5 -6 10 -9 114 -65 38 -20 75 -44 83 -52 8 -7 18 -14 22 -14 4 0 16 -8 27
-17 27 -24 55 -42 77 -49 9 -4 17 -13 17 -20 0 -8 6 -14 13 -14 7 0 30 -16 52
-35 22 -19 43 -35 46 -35 4 0 30 -23 58 -51 28 -28 51 -48 51 -45 0 3 42 -36
93 -88 91 -92 99 -102 145 -161 13 -16 27 -30 30 -30 4 0 6 -3 5 -7 -2 -4 9
-16 22 -26 14 -11 25 -24 25 -28 0 -5 14 -24 30 -43 17 -18 30 -40 30 -47 0
-8 5 -14 10 -14 6 0 10 -8 10 -17 0 -9 3 -13 7 -10 6 7 22 -16 42 -60 6 -13
14 -23 19 -23 4 0 13 -12 20 -27 23 -54 79 -143 85 -136 4 3 7 -2 7 -12 0 -24
31 -95 42 -95 4 0 8 -4 8 -9 0 -5 5 -22 12 -38 6 -15 10 -32 10 -36 -1 -4 5
-10 13 -13 8 -4 15 -16 15 -28 1 -11 7 -32 15 -46 8 -14 14 -35 15 -47 0 -13
4 -23 10 -23 7 0 31 -63 34 -92 1 -3 4 -10 9 -14 4 -4 7 -17 7 -29 0 -11 4
-25 9 -30 10 -11 41 -131 41 -158 0 -9 4 -17 9 -17 5 0 12 -28 16 -62 4 -35 9
-72 12 -83 2 -11 6 -42 9 -70 3 -27 10 -59 15 -70 25 -54 25 -626 -1 -680 -5
-11 -11 -45 -13 -75 -5 -73 -29 -214 -38 -220 -3 -3 -11 -32 -17 -65 -18 -98
-21 -110 -32 -113 -5 -2 -10 -12 -10 -23 0 -23 -38 -139 -50 -154 -5 -6 -11
-24 -14 -39 -3 -16 -10 -34 -16 -40 -5 -5 -10 -20 -10 -32 0 -12 -6 -24 -14
-27 -7 -3 -16 -21 -20 -41 -4 -19 -12 -41 -19 -49 -21 -22 -47 -78 -47 -98 0
-11 -4 -17 -10 -14 -5 3 -10 0 -10 -8 0 -8 -11 -26 -25 -41 -13 -14 -22 -26
-19 -26 6 0 -35 -71 -46 -80 -3 -3 -16 -26 -30 -52 -13 -26 -27 -45 -30 -43
-4 2 -14 -11 -23 -30 -9 -19 -21 -35 -26 -35 -5 0 -11 -8 -15 -17 -8 -27 -29
-55 -53 -76 -13 -10 -23 -25 -23 -33 0 -8 -4 -12 -10 -9 -5 3 -10 2 -10 -3 0
-5 -36 -47 -80 -93 -44 -45 -80 -86 -80 -91 0 -4 -4 -8 -8 -8 -5 0 -36 -26
-69 -57 -97 -93 -170 -156 -200 -172 -15 -9 -31 -21 -35 -27 -4 -6 -21 -17
-38 -24 -17 -7 -28 -15 -26 -18 3 -2 -32 -27 -77 -54 -45 -28 -84 -53 -87 -57
-3 -3 -24 -15 -47 -26 -24 -11 -43 -23 -43 -27 0 -5 -8 -8 -17 -8 -10 0 -27
-7 -37 -15 -11 -8 -27 -15 -37 -15 -9 0 -19 -7 -22 -14 -3 -8 -22 -18 -42 -22
-20 -3 -39 -13 -42 -20 -3 -8 -16 -14 -28 -14 -13 0 -27 -4 -30 -10 -3 -5 -14
-10 -23 -10 -9 0 -30 -7 -47 -16 -42 -22 -140 -54 -165 -54 -11 0 -20 -4 -20
-8 0 -9 -66 -27 -138 -37 -23 -4 -40 -11 -36 -16 3 -5 -7 -9 -23 -10 -28 0
-35 -1 -132 -19 -30 -6 -76 -10 -103 -10 -26 0 -48 -4 -48 -9 0 -11 -230 -24
-370 -22 -102 2 -207 11 -340 30 -36 5 -107 14 -157 21 -51 7 -93 17 -93 21 0
4 -15 10 -32 14 -107 20 -148 30 -148 37 0 4 -8 8 -18 8 -21 0 -135 39 -142
48 -7 9 -104 42 -124 42 -9 0 -16 3 -16 8 0 4 -21 16 -48 26 -26 11 -53 26
-60 33 -8 7 -17 11 -22 8 -4 -3 -13 2 -20 10 -7 8 -21 15 -31 15 -11 0 -19 4
-19 8 0 5 -19 17 -42 28 -24 10 -49 24 -55 30 -7 7 -26 18 -43 26 -16 7 -30
16 -30 21 0 4 -10 12 -22 18 -45 20 -68 36 -61 42 3 4 -1 7 -10 7 -9 0 -17 5
-17 10 0 6 -6 10 -14 10 -7 0 -29 13 -47 30 -19 16 -38 30 -43 30 -4 0 -17 11
-28 25 -10 13 -22 24 -26 22 -4 -1 -9 3 -11 8 -3 6 -16 19 -30 30 -54 42 -66
53 -162 147 -55 54 -99 102 -99 108 0 6 -4 9 -8 6 -4 -3 -16 11 -27 30 -10 19
-24 34 -32 34 -7 0 -13 6 -13 13 0 6 -14 28 -30 47 -17 19 -39 46 -50 58 -11
13 -20 28 -20 33 0 5 -4 9 -10 9 -5 0 -12 11 -16 25 -3 14 -9 25 -14 25 -4 0
-15 16 -26 35 -10 19 -22 35 -25 35 -4 0 -9 10 -13 23 -3 12 -13 31 -23 42
-10 12 -29 43 -43 70 -14 28 -27 52 -30 55 -4 3 -16 28 -28 55 -12 28 -22 46
-22 40 -1 -16 -40 88 -40 108 0 9 -3 17 -8 17 -7 0 -25 37 -37 80 -4 14 -11
27 -15 30 -9 7 -40 105 -40 129 0 10 -3 21 -8 23 -8 4 -42 127 -42 156 0 11
-4 22 -9 24 -5 2 -12 29 -15 61 -4 33 -12 70 -17 84 -5 14 -12 75 -16 134 -3
60 -10 106 -15 103 -15 -9 -15 475 0 485 5 3 12 56 15 118 3 61 10 120 15 130
5 10 13 47 16 83 4 35 11 67 15 70 7 5 22 64 41 165 4 22 9 33 10 25 1 -8 6 1
11 20 14 62 38 135 39 125 1 -5 13 22 25 60 13 39 25 63 26 55 0 -8 5 -1 9 15
11 42 34 99 41 105 9 7 42 83 41 93 -1 4 2 7 8 7 5 0 10 7 10 15 0 8 4 15 8
15 5 0 14 16 22 35 8 19 16 35 19 35 3 0 15 18 25 40 11 22 23 40 28 40 4 0
15 18 24 40 9 22 19 40 23 40 4 0 15 14 25 31 10 18 26 39 35 49 24 25 75 91
80 103 2 6 17 23 32 38 16 16 29 33 29 39 0 6 5 8 10 5 6 -3 10 -1 10 4 0 14
207 221 221 221 5 0 7 5 4 10 -3 6 -1 10 6 10 6 0 24 13 39 29 16 16 32 30 38
32 11 5 74 54 110 87 14 12 28 22 32 22 3 0 15 8 26 18 10 10 36 26 57 35 20
10 36 21 33 25 -2 4 16 16 40 27 24 11 44 22 44 25 0 4 16 12 35 20 19 8 35
17 35 22 0 4 12 8 28 8 21 0 24 2 12 10 -13 8 -13 10 2 10 15 0 77 28 88 41 3
3 28 13 55 24 28 10 52 21 55 24 3 3 32 15 65 26 33 10 62 22 65 25 9 10 108
40 131 40 17 0 20 3 11 9 -9 5 1 10 30 14 80 12 160 32 152 40 -4 4 7 7 24 7
18 0 34 1 37 2 2 0 24 5 47 9 24 4 57 10 73 14 17 4 37 8 45 10 8 2 49 4 90 4
51 1 70 4 60 11 -21 13 229 19 470 11z m-3169 -1832 c10 -12 19 -18 19 -13 0
5 5 2 10 -6 17 -26 12 -61 -9 -67 -11 -3 -22 -11 -25 -18 -10 -27 -120 9 -128
42 -7 29 11 81 30 87 33 9 84 -3 103 -25z m5796 -1226 c-3 -10 -5 -4 -5 12 0
17 2 24 5 18 2 -7 2 -21 0 -30z"/>
<path d="M4730 7467 c-3 -3 -52 -9 -109 -12 -57 -4 -111 -9 -120 -10 -9 -2
-34 -4 -56 -4 -25 -1 -35 -4 -27 -10 8 -5 -17 -10 -65 -14 -43 -4 -89 -9 -103
-13 -14 -4 -43 -9 -65 -12 -32 -4 -36 -6 -20 -13 14 -5 5 -8 -31 -8 -51 -1
-84 -21 -84 -50 0 -7 -3 -10 -8 -7 -4 2 -16 -17 -26 -42 -11 -26 -22 -49 -26
-52 -3 -3 -14 -23 -25 -45 -34 -75 -55 -83 -218 -86 -61 -1 -122 -6 -134 -10
l-23 -9 0 -1229 c0 -676 3 -1236 6 -1245 5 -12 21 -16 66 -16 45 0 57 3 52 13
-5 7 0 6 11 -3 10 -8 16 -10 12 -4 -4 8 27 13 101 17 377 22 478 30 487 37 6
4 100 11 210 15 110 3 216 9 235 11 238 29 407 31 483 4 31 -11 67 -20 81 -20
13 0 26 -5 28 -10 12 -36 354 -38 366 -1 2 6 13 11 25 11 12 0 39 9 60 20 35
19 50 20 205 15 154 -5 192 -8 247 -19 11 -3 119 -8 240 -12 121 -4 222 -10
225 -15 3 -4 55 -11 115 -14 61 -3 137 -8 170 -10 33 -3 113 -8 178 -11 65 -4
120 -11 123 -16 9 -14 114 -9 130 6 12 13 14 193 14 1250 0 817 -3 1236 -10
1236 -5 0 -10 7 -10 15 0 13 -24 15 -156 15 -120 0 -159 3 -170 14 -7 8 -18
16 -24 18 -6 2 -12 13 -14 25 -5 22 -34 84 -45 93 -3 3 -16 25 -28 50 -13 25
-23 41 -23 37 0 -5 -7 -1 -16 7 -9 9 -32 16 -55 16 -21 0 -39 3 -39 8 0 11
-92 30 -183 38 -49 4 -73 10 -65 15 9 6 5 9 -12 9 -14 0 -70 5 -125 10 -206
20 -284 22 -361 12 -44 -6 -109 -14 -146 -18 -37 -3 -65 -10 -62 -15 3 -5 -7
-9 -23 -10 -55 -1 -123 -24 -123 -40 0 -5 -7 -9 -15 -9 -16 0 -60 -25 -83 -47
-8 -7 -23 -18 -34 -24 -11 -6 -17 -13 -14 -16 2 -3 -10 -21 -29 -40 -18 -19
-40 -48 -48 -66 -14 -27 -17 -29 -23 -14 -5 14 -9 16 -15 6 -5 -9 -10 -5 -14
14 -4 15 -11 27 -16 27 -5 0 -9 5 -9 10 0 14 -37 50 -52 50 -6 0 -8 3 -5 7 9
8 -22 43 -37 43 -7 0 -18 9 -26 19 -7 11 -17 18 -21 15 -4 -2 -10 0 -14 6 -3
5 -16 10 -28 10 -15 0 -18 3 -9 8 15 10 -74 42 -115 42 -13 0 -22 4 -19 8 10
16 -400 54 -414 39z m220 -87 c-42 -7 -41 -7 25 -9 78 -2 230 -32 219 -44 -4
-4 4 -7 18 -7 14 0 31 -7 38 -15 7 -8 21 -15 32 -15 10 0 16 -4 13 -10 -3 -5
1 -10 9 -10 9 0 16 -4 16 -9 0 -5 9 -13 20 -16 11 -4 18 -10 15 -15 -3 -5 4
-11 15 -15 11 -3 20 -13 20 -21 0 -8 4 -14 10 -14 5 0 12 -11 16 -25 3 -14 9
-25 13 -25 10 0 41 -112 42 -152 1 -31 1 -32 9 -8 4 14 8 -370 9 -853 1 -650
-2 -882 -11 -896 -11 -17 -13 -16 -44 14 -18 18 -52 44 -76 56 -24 13 -44 27
-46 31 -2 4 -30 15 -63 24 -32 9 -59 21 -59 25 0 5 -9 9 -20 9 -10 0 -45 7
-77 15 -69 18 -534 22 -579 5 -15 -6 -64 -14 -108 -17 -45 -3 -85 -9 -91 -13
-5 -4 -28 -10 -51 -13 -23 -3 -45 -7 -50 -8 -5 -2 -19 0 -31 5 l-23 7 0 955
c0 670 3 954 10 954 6 0 9 4 5 9 -12 20 49 38 128 40 21 1 36 5 33 10 -3 5 22
12 57 16 34 3 86 10 116 16 30 5 95 10 145 10 71 2 82 3 51 9 -23 4 28 7 125
7 99 0 147 -3 120 -7z m1410 0 c-38 -5 -31 -7 50 -11 130 -7 320 -30 320 -39
0 -4 24 -10 54 -14 68 -8 86 -14 86 -32 0 -8 5 -14 10 -14 7 0 10 -322 10
-946 0 -627 -3 -943 -10 -939 -5 3 -10 1 -10 -4 0 -6 5 -11 10 -11 7 0 6 -5
-2 -13 -7 -8 -21 -12 -33 -10 -69 12 -85 16 -85 24 0 5 -22 9 -49 9 -27 0 -85
7 -128 15 -113 22 -566 21 -666 -1 -74 -16 -166 -56 -201 -86 -11 -10 -23 -18
-27 -18 -5 0 -21 -11 -36 -25 -49 -43 -52 -45 -73 -45 -20 0 -20 1 -20 825 0
780 7 1019 30 1035 4 3 12 21 19 42 7 20 22 47 34 61 12 13 30 33 39 43 24 27
46 44 57 44 5 0 11 3 13 8 4 10 75 42 93 42 7 0 15 4 17 10 5 15 93 32 203 38
80 5 92 7 60 13 -22 3 32 6 120 6 91 0 141 -3 115 -7z m-2280 -1133 c0 -882
-1 -909 -20 -946 -10 -21 -16 -41 -13 -45 4 -3 2 -6 -3 -6 -6 0 -18 -18 -28
-40 -10 -22 -22 -40 -27 -40 -5 0 -9 -6 -9 -13 0 -8 -7 -28 -16 -46 -9 -17
-17 -40 -19 -49 -1 -10 -9 -16 -19 -14 -10 2 -16 -4 -16 -14 0 -10 -3 -14 -7
-10 -4 3 -6 423 -5 933 l2 927 40 69 c22 38 40 76 40 83 0 8 4 14 8 14 10 0
42 65 43 88 0 10 3 12 6 4 7 -18 23 -4 23 21 0 18 2 19 10 7 6 -9 10 -354 10
-923z m2910 891 c0 26 18 10 24 -22 4 -19 10 -36 14 -38 10 -4 52 -87 52 -103
0 -7 6 -15 14 -18 8 -3 19 -22 26 -41 6 -20 16 -36 21 -36 12 0 12 -1820 -1
-1840 -7 -12 -10 -11 -16 5 -4 11 -16 26 -26 33 -10 7 -18 20 -18 27 0 15 -41
107 -51 115 -4 3 -15 24 -26 48 -11 23 -22 40 -25 37 -14 -15 -18 156 -17 974
0 769 2 881 14 865 8 -11 14 -14 15 -6z m348 -104 c13 -2 20 -9 17 -13 -3 -5
0 -11 5 -13 7 -2 10 -374 10 -1157 0 -1087 -1 -1155 -17 -1167 -10 -8 -27 -12
-38 -9 -11 2 -101 7 -198 11 -101 4 -172 11 -165 15 7 5 -21 9 -67 9 -111 1
-256 9 -343 21 -40 5 -126 10 -190 10 -71 1 -103 4 -82 8 22 5 -21 10 -120 14
-85 4 -191 10 -235 13 -71 5 -82 3 -102 -15 -12 -12 -29 -21 -37 -21 -8 0 -17
-4 -20 -9 -4 -5 -29 -12 -56 -16 -28 -4 -47 -11 -44 -16 6 -10 -51 -13 -161
-10 -38 1 -71 6 -73 12 -2 5 -11 9 -19 9 -30 0 -128 35 -147 52 -10 10 -23 15
-27 12 -4 -2 -10 -1 -13 4 -2 4 -60 2 -128 -5 -68 -6 -170 -13 -228 -14 -74
-1 -95 -4 -70 -9 23 -5 -12 -8 -96 -9 -72 0 -155 -5 -185 -10 -57 -10 -239
-21 -347 -21 -35 0 -61 -4 -58 -9 9 -13 -401 -28 -419 -15 -13 10 -15 149 -15
1159 0 916 2 1150 12 1157 7 4 43 8 81 8 37 0 67 4 67 10 0 5 9 2 19 -7 11 -9
17 -21 13 -27 -4 -6 -7 -14 -7 -18 0 -4 -9 -18 -20 -30 -20 -23 -20 -38 -22
-1047 0 -564 2 -1034 7 -1045 7 -21 11 -21 196 -12 104 5 178 13 164 16 -14 4
61 10 165 13 105 3 217 8 250 11 107 9 238 16 340 16 65 0 95 4 85 10 -9 6 26
10 100 12 138 4 180 0 159 -13 -11 -7 -9 -9 8 -9 12 0 25 -5 28 -10 4 -6 11
-8 16 -5 5 4 9 1 9 -4 0 -6 12 -11 28 -11 18 0 23 -3 14 -9 -9 -5 3 -10 34
-15 97 -13 269 -3 258 15 -3 5 1 9 9 9 22 0 88 35 81 43 -10 10 17 11 171 8
66 -2 93 -5 80 -11 -13 -6 17 -9 85 -10 156 -1 335 -10 418 -21 40 -5 144 -10
230 -10 94 -1 145 -4 127 -9 -21 -5 -1 -8 65 -10 52 -1 103 -3 112 -5 10 -2
48 -5 85 -6 68 -3 98 4 88 22 -4 5 2 9 12 10 10 0 13 3 6 6 -10 4 -13 214 -13
1002 0 887 -2 1003 -16 1044 -9 26 -20 47 -25 47 -5 0 -9 7 -9 15 0 8 -8 15
-17 15 -13 0 -15 2 -5 8 7 5 10 16 7 24 -4 11 0 18 12 20 21 4 128 -1 161 -8z"/>
<path d="M4825 7070 c-4 -6 -10 -8 -15 -5 -11 7 -19 -18 -22 -68 -1 -21 -6
-41 -11 -44 -5 -3 -74 -5 -153 -4 -80 1 -156 -2 -169 -5 -30 -7 -37 -43 -13
-65 19 -17 22 -31 20 -97 -1 -24 -6 -41 -11 -38 -10 7 -17 -16 -27 -89 -3 -27
-12 -54 -20 -60 -8 -6 -14 -33 -15 -67 -2 -34 -7 -56 -13 -55 -7 1 -12 -21
-14 -55 -2 -40 -7 -58 -16 -58 -23 0 -25 -67 -3 -91 18 -20 28 -21 172 -17 85
1 157 6 161 10 8 9 7 79 -2 123 -6 27 -8 28 -15 10 -7 -18 -8 -18 -10 5 -2 14
-4 34 -5 45 -1 11 -2 35 -3 54 -1 19 -4 31 -8 27 -5 -4 -13 16 -20 46 -23 102
-45 173 -57 180 -7 5 -6 8 4 8 10 0 11 3 4 8 -17 11 -25 67 -11 81 8 8 7 11
-3 13 -8 1 30 4 85 7 107 6 148 4 140 -9 -3 -5 -1 -11 5 -15 12 -7 13 -769 1
-800 -5 -11 -12 -20 -17 -21 -41 -2 -74 -18 -74 -35 0 -10 -5 -19 -11 -19 -6
0 -4 -7 4 -15 9 -8 17 -19 19 -25 6 -20 134 -33 208 -20 39 7 70 16 70 20 0 5
7 16 16 24 8 9 11 16 5 16 -6 0 -11 8 -11 19 0 13 -12 22 -45 31 -24 7 -42 16
-40 20 3 5 0 10 -5 12 -17 5 -14 789 2 800 7 4 9 8 3 9 -5 0 -2 3 7 7 26 11
225 2 207 -9 -10 -6 -10 -9 -1 -9 7 0 12 -15 12 -42 0 -23 -3 -38 -7 -34 -8 8
-32 -77 -33 -116 0 -40 -11 -63 -21 -46 -6 8 -9 -1 -9 -27 0 -64 -12 -119 -21
-103 -5 8 -9 -12 -9 -49 0 -44 -5 -69 -17 -82 -24 -29 -25 -55 -2 -79 18 -20
29 -22 152 -22 144 0 177 5 177 26 0 8 5 14 10 14 7 0 7 6 0 19 -5 11 -11 35
-11 53 -1 18 -3 25 -6 16 -9 -35 -18 -17 -21 42 -2 33 -10 76 -18 95 -8 19
-11 35 -7 35 4 0 2 5 -5 12 -7 7 -12 21 -12 33 0 12 -4 25 -10 31 -5 5 -13 32
-16 59 -4 28 -10 52 -13 55 -11 9 -30 94 -23 105 4 5 7 13 7 18 0 4 2 6 5 5
10 -5 38 27 32 37 -4 6 -7 17 -7 25 0 13 -25 15 -160 17 -170 2 -201 6 -191
22 4 5 2 12 -2 15 -5 3 -7 16 -5 30 7 37 -45 84 -62 56z m325 -470 c12 0 11
-191 -2 -227 -10 -28 -17 -33 -46 -33 -18 0 -39 6 -46 13 -13 13 -7 59 9 57 6
0 12 25 15 56 3 32 11 59 18 62 6 2 12 15 12 28 0 14 4 22 10 19 6 -4 10 8 11
27 1 18 3 25 6 16 2 -10 8 -18 13 -18z m-666 4 c3 -9 6 -64 6 -122 -1 -108 -9
-138 -40 -142 -32 -5 -61 1 -55 10 3 6 3 10 -2 10 -4 0 -9 11 -9 25 -2 26 11
34 19 13 3 -7 6 11 7 40 2 28 4 57 5 62 1 6 3 19 4 31 0 11 6 17 11 14 6 -3
10 3 10 14 0 12 5 21 10 21 6 0 10 9 10 20 0 24 15 27 24 4z m75 -30 c2 24 28
-19 28 -47 0 -17 3 -45 7 -61 6 -23 9 -27 17 -15 7 12 9 12 10 -1 5 -56 4 -90
-4 -90 -4 0 -5 -4 -2 -10 4 -6 -8 -10 -29 -10 -30 0 -37 4 -42 25 -3 13 -11
23 -17 22 -6 -1 -10 31 -11 90 -1 51 3 93 7 93 4 0 7 6 6 13 -4 33 3 39 16 12
7 -16 14 -26 14 -21z m667 -10 c8 -7 20 -38 26 -70 16 -86 19 -93 28 -69 7 16
9 12 9 -18 1 -45 -17 -67 -55 -67 -15 0 -24 3 -21 7 4 3 0 15 -9 25 -14 14
-17 38 -16 113 1 99 13 166 20 115 2 -14 10 -30 18 -36z m-709 -270 c-3 -3
-12 -4 -19 -1 -8 3 -5 6 6 6 11 1 17 -2 13 -5z"/>
<path d="M4532 6420 c0 -14 2 -19 5 -12 2 6 2 18 0 25 -3 6 -5 1 -5 -13z"/>
<path d="M4488 6233 c18 -2 45 -2 60 0 15 2 0 4 -33 4 -33 0 -45 -2 -27 -4z"/>
<path d="M5188 6233 c12 -2 30 -2 40 0 9 3 -1 5 -23 4 -22 0 -30 -2 -17 -4z"/>
<path d="M6561 7186 c-1 -11 -6 -16 -15 -13 -8 3 -20 0 -26 -8 -16 -19 -50
-26 -50 -9 0 8 -7 14 -15 14 -8 0 -17 0 -20 0 -3 0 -5 -3 -5 -7 0 -5 6 -8 13
-8 6 0 12 -5 12 -12 0 -7 8 -18 19 -26 15 -11 17 -17 7 -35 -16 -29 -14 -65 2
-59 24 9 34 -27 31 -115 -2 -49 1 -88 6 -88 5 0 7 -6 4 -14 -3 -8 -1 -17 5
-21 7 -3 11 2 11 13 0 11 8 23 17 26 14 6 14 9 4 15 -8 6 -13 34 -14 86 -1 63
2 79 16 87 23 12 21 40 -3 56 -14 8 -20 23 -20 46 0 28 4 35 27 41 15 3 22 9
16 13 -5 4 -13 14 -16 22 -4 11 -6 11 -6 -4z"/>
<path d="M5960 7062 c0 -16 -5 -22 -17 -20 -20 3 -27 -36 -12 -62 6 -11 8 -11
9 -2 0 7 5 10 10 7 6 -3 10 -35 10 -71 0 -50 3 -64 15 -64 8 0 15 -4 15 -9 0
-12 46 -20 62 -10 9 6 3 9 -16 9 -22 0 -26 3 -18 13 8 10 7 17 -7 27 -18 12
-18 14 7 36 19 19 21 24 8 24 -9 0 -16 5 -16 10 0 6 -6 10 -14 10 -18 0 -27
37 -12 48 6 5 20 13 31 17 l20 8 -20 4 c-11 3 -28 15 -37 26 l-18 22 0 -23z"/>
<path d="M6086 7045 c-4 -13 2 -25 15 -36 16 -12 20 -24 17 -60 -2 -24 -7 -43
-13 -41 -5 2 -12 -5 -16 -15 -3 -9 -17 -21 -30 -24 -22 -6 -22 -7 -3 -8 13 -1
24 -9 27 -22 3 -12 10 -18 16 -14 6 3 16 -6 22 -22 l12 -28 8 30 c5 17 8 68 6
115 -1 61 1 85 10 85 7 0 18 6 25 13 18 18 55 15 64 -5 8 -20 8 -45 -2 -86 -7
-31 10 -59 35 -55 38 7 61 57 36 82 -11 10 -12 16 -4 16 8 0 9 3 0 14 -9 10
-7 16 5 27 37 30 78 12 70 -32 -3 -13 -5 -27 -5 -31 -1 -5 -10 -8 -21 -8 -11
0 -20 -5 -20 -11 0 -6 6 -9 14 -6 16 6 39 -39 36 -69 -6 -50 0 -64 25 -64 l25
0 0 110 c0 67 4 110 10 110 6 0 10 11 10 24 0 21 -5 24 -59 29 -66 7 -161 -1
-161 -14 0 -12 -57 -11 -65 0 -3 5 9 12 27 14 18 2 1 3 -39 3 -63 -1 -73 -3
-77 -21z m284 3 c0 -5 -11 -8 -25 -8 -14 0 -25 4 -25 9 0 5 11 8 25 7 14 0 25
-4 25 -8z"/>
<path d="M6426 6555 c7 -18 -12 -20 -19 -2 -7 16 -29 -13 -22 -30 2 -7 -2 -13
-10 -13 -8 0 -15 -9 -15 -19 0 -45 -9 -51 -76 -51 -36 0 -64 -4 -64 -10 0 -5
5 -10 10 -10 6 0 10 -9 10 -19 0 -11 5 -23 10 -26 13 -8 -13 -35 -34 -35 -19
0 -21 -16 -3 -23 9 -4 8 -8 -3 -16 -13 -9 -12 -11 6 -11 31 0 42 -18 34 -54
-4 -20 -3 -41 4 -54 11 -20 11 -20 29 4 10 13 13 24 8 24 -17 0 -5 162 13 176
9 6 12 15 8 20 -4 5 -5 8 -3 7 2 -2 10 2 18 8 10 9 15 5 24 -19 6 -17 18 -33
27 -35 15 -4 15 -5 -1 -6 -14 -1 -17 -9 -15 -41 2 -22 5 -40 8 -40 10 0 9 -59
0 -65 -15 -9 -12 -25 5 -25 8 0 15 -8 15 -17 0 -15 3 -14 15 4 11 16 15 45 14
105 -2 90 7 138 25 138 103 5 178 1 190 -9 17 -14 10 -41 -10 -41 -8 0 -14 -4
-14 -10 0 -5 7 -7 15 -4 8 4 15 1 15 -5 0 -16 -97 -14 -103 2 -4 10 -6 10 -6
0 -1 -7 -10 -13 -21 -13 -14 0 -20 -7 -21 -22 -2 -38 2 -63 12 -66 5 -2 9 -10
9 -18 0 -8 5 -14 10 -14 6 0 10 -7 10 -16 0 -8 4 -13 9 -9 6 3 14 -2 19 -11 8
-15 10 -14 16 2 4 11 -1 28 -14 46 -11 15 -20 34 -20 43 0 18 -16 20 -23 3 -3
-7 -6 -3 -6 8 -1 24 33 38 84 35 61 -4 64 -8 63 -69 0 -31 0 -66 1 -77 2 -19
2 -19 12 -2 6 9 14 15 20 12 5 -4 9 -3 10 2 3 27 1 123 -4 151 -2 17 0 32 4
32 5 0 9 16 9 35 0 23 -5 35 -14 35 -8 0 -16 7 -20 15 -3 8 -12 15 -21 15 -8
0 -15 5 -15 10 0 7 -6 7 -20 0 -11 -6 -17 -16 -14 -25 5 -13 -9 -15 -85 -15
-58 0 -97 4 -105 12 -19 18 -7 58 23 70 15 6 21 12 14 15 -25 9 -12 22 25 26
34 3 33 4 -10 5 -38 2 -46 -1 -42 -13z m261 -327 c-3 -8 -6 -5 -6 6 -1 11 2
17 5 13 3 -3 4 -12 1 -19z"/>
<path d="M6486 6530 c36 -14 87 -16 91 -2 4 9 -11 12 -54 11 -42 0 -52 -3 -37
-9z"/>
<path d="M6585 6501 c-6 -11 9 -23 19 -14 9 9 7 23 -3 23 -6 0 -12 -4 -16 -9z"/>
<path d="M5885 6440 c-80 -5 -85 -17 -10 -22 22 -2 39 -7 38 -13 0 -5 3 -17 8
-26 12 -22 -11 -52 -34 -43 -9 3 -17 11 -17 18 0 6 -5 4 -10 -4 -8 -12 -11
-13 -19 -1 -7 11 -9 11 -13 0 -6 -17 10 -48 40 -74 12 -11 22 -26 22 -33 0 -7
6 -12 14 -12 8 0 16 -10 18 -22 2 -16 10 -23 27 -22 14 0 26 5 29 12 2 7 -5
12 -17 12 -16 0 -21 6 -21 25 0 17 -6 25 -17 25 -17 1 -17 1 0 11 9 5 17 18
17 29 0 10 8 20 17 22 10 2 18 14 20 28 1 14 5 39 7 57 7 38 3 39 -99 33z"/>
<path d="M6080 6431 c0 -5 9 -11 21 -14 23 -6 21 -30 -2 -35 -9 -1 -20 9 -26
25 -10 25 -11 23 -12 -31 -1 -38 -6 -63 -15 -70 -22 -17 -25 -52 -3 -48 11 2
17 -4 17 -18 0 -14 7 -20 23 -20 12 0 27 -8 34 -19 6 -10 21 -21 32 -24 16 -4
22 0 27 18 14 56 -7 70 -73 49 -21 -6 -23 -3 -23 30 0 37 9 42 70 37 28 -2 43
15 32 36 -6 11 -7 25 -2 33 10 15 -7 43 -20 35 -4 -3 -10 2 -14 10 -6 16 -66
22 -66 6z"/>
<path d="M6026 5955 c-3 -8 -12 -15 -21 -15 -10 0 -15 -10 -15 -31 0 -65 -8
-69 -140 -69 -66 0 -120 -4 -120 -8 0 -5 23 -9 52 -11 53 -2 77 -19 78 -53 0
-19 -22 -27 -67 -24 -22 2 -33 -2 -33 -11 0 -7 5 -13 10 -13 6 0 10 -5 10 -11
0 -7 8 -19 18 -28 10 -9 21 -24 25 -33 3 -10 13 -18 22 -18 8 0 15 -9 15 -20
0 -15 7 -20 25 -20 14 0 25 5 25 10 0 6 -7 10 -16 10 -9 0 -14 6 -12 12 3 7
-1 18 -8 25 -16 17 -27 17 -18 1 4 -8 2 -8 -7 1 -11 10 -11 15 -1 18 6 3 12
10 12 17 0 17 35 48 43 39 4 -3 7 9 8 28 1 50 12 72 38 74 32 2 41 -29 41
-145 l0 -98 25 2 25 1 0 123 c0 80 4 121 10 117 6 -3 10 -3 10 0 0 9 -23 31
-40 38 -12 4 -11 6 3 6 11 1 17 9 17 25 0 13 6 27 13 30 10 5 10 7 0 12 -28
13 -10 23 45 27 l57 3 -61 2 c-47 2 -63 -2 -68 -13z m4 -55 c0 -5 -5 -10 -11
-10 -5 0 -7 5 -4 10 3 6 8 10 11 10 2 0 4 -4 4 -10z"/>
<path d="M6135 5940 c-25 -5 -27 -7 -12 -13 10 -4 29 -7 42 -7 12 0 25 -7 29
-15 3 -8 17 -15 31 -15 15 0 24 4 20 10 -3 6 -15 10 -27 10 -13 0 -18 5 -15
14 7 17 -25 24 -68 16z"/>
<path d="M6253 5874 c-10 -10 -10 -15 0 -21 22 -14 40 -61 33 -87 -5 -21 -12
-26 -36 -26 -25 0 -30 4 -30 25 0 14 6 25 13 25 6 0 3 7 -8 16 -11 8 -19 20
-17 25 1 5 -18 9 -42 9 -38 0 -44 -3 -48 -24 -3 -14 -2 -30 2 -36 10 -17 0
-60 -15 -60 -16 0 -25 -53 -13 -74 5 -9 16 -16 23 -16 8 0 15 -5 15 -10 0 -7
6 -7 19 0 16 8 21 6 26 -9 3 -11 17 -21 34 -23 26 -4 30 -1 33 24 7 44 -17 59
-60 37 -28 -16 -44 1 -40 41 3 22 8 25 48 27 25 1 53 4 63 7 24 6 40 -34 38
-91 -1 -32 2 -43 13 -43 8 0 19 -8 24 -17 15 -25 21 24 20 140 0 54 1 100 4
102 7 7 217 10 224 3 3 -4 3 -16 -1 -27 -5 -18 -14 -21 -61 -21 -30 0 -54 -4
-54 -9 0 -5 -9 -11 -20 -14 -15 -4 -20 -13 -20 -39 0 -48 10 -78 26 -78 8 0
14 -8 14 -18 0 -11 8 -18 24 -20 20 -1 24 3 22 23 0 14 -6 25 -12 25 -7 0 -15
11 -18 25 -4 14 -11 25 -16 25 -19 0 -10 17 14 28 23 10 89 8 108 -4 5 -4 8
-34 6 -68 -2 -44 0 -61 10 -60 6 1 19 2 27 3 11 1 15 14 15 49 0 65 -11 123
-21 116 -5 -3 -9 0 -9 5 0 6 7 11 15 11 13 0 21 43 13 67 -2 4 -68 6 -147 4
-123 -2 -149 0 -180 16 -20 10 -38 21 -41 24 -3 4 -11 1 -17 -7z m-66 -70 c5
-15 -20 -24 -37 -14 -7 4 -9 13 -5 19 8 14 37 11 42 -5z m373 -54 c-20 -13
-77 -13 -85 0 -4 6 14 10 47 10 38 0 49 -3 38 -10z m57 -62 c-3 -7 -5 -2 -5
12 0 14 2 19 5 13 2 -7 2 -19 0 -25z m7 -33 c-4 -8 -8 -15 -10 -15 -2 0 -4 7
-4 15 0 8 4 15 10 15 5 0 7 -7 4 -15z"/>
<path d="M6720 5809 c-11 -8 -12 -12 -2 -16 18 -7 15 -23 -5 -24 -15 0 -15 -2
2 -8 27 -11 33 -6 29 25 -3 33 -6 35 -24 23z"/>
<path d="M6731 5658 c-1 -11 -10 -18 -23 -19 -21 -1 -21 -2 -3 -6 11 -3 22 -9
25 -13 3 -4 11 -2 18 6 7 8 8 14 3 14 -5 0 -12 8 -14 18 -4 16 -5 16 -6 0z"/>
<path d="M5553 4312 c-37 -3 -42 -6 -40 -25 3 -32 15 -37 83 -37 34 0 79 -6
100 -13 24 -7 62 -10 99 -6 l60 6 -52 1 c-50 2 -69 14 -40 25 6 3 3 6 -8 7
-11 0 -29 7 -39 15 -10 8 -23 12 -27 9 -5 -3 -9 -1 -9 4 0 11 -66 18 -127 14z"/>
<path d="M5350 4300 c17 -12 99 -10 106 2 3 4 -23 8 -58 8 -45 0 -59 -3 -48
-10z"/>
<path d="M5197 4263 c18 -2 50 -2 70 0 21 2 7 4 -32 4 -38 0 -55 -2 -38 -4z"/>
<path d="M6388 4263 c6 -2 18 -2 25 0 6 3 1 5 -13 5 -14 0 -19 -2 -12 -5z"/>
<path d="M4573 4233 c9 -2 23 -2 30 0 6 3 -1 5 -18 5 -16 0 -22 -2 -12 -5z"/>
<path d="M5118 4233 c18 -2 45 -2 60 0 15 2 0 4 -33 4 -33 0 -45 -2 -27 -4z"/>
<path d="M5473 4233 c9 -2 25 -2 35 0 9 3 1 5 -18 5 -19 0 -27 -2 -17 -5z"/>
<path d="M6313 4233 c15 -2 39 -2 55 0 15 2 2 4 -28 4 -30 0 -43 -2 -27 -4z"/>
<path d="M4613 4199 c14 -8 22 -8 30 0 8 8 3 11 -18 11 -26 -1 -28 -2 -12 -11z"/>
<path d="M5030 4201 c0 -4 14 -7 32 -5 45 6 48 14 5 14 -20 0 -37 -4 -37 -9z"/>
<path d="M5405 4201 c-3 -6 8 -8 26 -6 43 6 50 15 11 15 -17 0 -33 -4 -37 -9z"/>
<path d="M6243 4203 c9 -2 25 -2 35 0 9 3 1 5 -18 5 -19 0 -27 -2 -17 -5z"/>
<path d="M4668 4163 c12 -2 32 -2 45 0 12 2 2 4 -23 4 -25 0 -35 -2 -22 -4z"/>
<path d="M4973 4163 c15 -2 37 -2 50 0 12 2 0 4 -28 4 -27 0 -38 -2 -22 -4z"/>
<path d="M5358 4163 c12 -2 30 -2 40 0 9 3 -1 5 -23 4 -22 0 -30 -2 -17 -4z"/>
<path d="M5993 4163 c15 -2 37 -2 50 0 12 2 0 4 -28 4 -27 0 -38 -2 -22 -4z"/>
<path d="M6138 4163 c18 -2 45 -2 60 0 15 2 0 4 -33 4 -33 0 -45 -2 -27 -4z"/>
<path d="M4803 4133 c31 -2 83 -2 115 0 31 2 5 3 -58 3 -63 0 -89 -1 -57 -3z"/>
<path d="M5283 4133 c15 -2 37 -2 50 0 12 2 0 4 -28 4 -27 0 -38 -2 -22 -4z"/>
<path d="M5148 4072 c-10 -2 -18 -10 -18 -18 0 -8 -8 -14 -17 -14 -12 0 -18
-8 -19 -25 -1 -14 2 -25 7 -25 5 0 9 9 9 20 0 13 7 20 20 20 13 0 18 5 14 14
-4 11 4 16 33 18 31 2 34 4 13 8 -14 3 -33 4 -42 2z"/>
<path d="M6191 3988 c-1 -16 4 -28 9 -28 12 0 12 8 0 35 -8 18 -9 17 -9 -7z"/>
<path d="M5057 3976 c-7 -19 4 -27 21 -17 10 6 10 10 -1 20 -12 9 -16 8 -20
-3z"/>
<path d="M5393 3968 c-2 -5 31 -8 74 -8 57 1 73 3 61 11 -20 11 -127 8 -135
-3z"/>
<path d="M5022 3943 c-8 -8 -9 -13 -2 -13 5 0 10 -5 10 -10 0 -6 -8 -10 -17
-8 -21 4 -30 -32 -14 -59 9 -15 10 -13 11 15 0 22 5 32 15 32 8 0 15 6 15 14
0 8 4 16 9 18 5 2 4 8 -3 14 -8 8 -15 7 -24 -3z"/>
<path d="M5348 3942 c-10 -2 -18 -10 -18 -18 0 -8 -6 -14 -14 -14 -7 0 -16 -9
-19 -20 -3 -11 -12 -20 -21 -20 -9 0 -16 -6 -16 -14 0 -8 -10 -17 -22 -19 -13
-2 -5 -5 17 -5 22 0 34 2 28 5 -22 8 -14 24 10 21 18 -2 21 1 19 22 -4 21 -2
22 12 11 16 -14 21 -7 17 26 -1 7 15 13 41 15 38 3 40 4 13 8 -16 3 -38 4 -47
2z"/>
<path d="M6232 3920 c0 -19 2 -27 5 -17 2 9 2 25 0 35 -3 9 -5 1 -5 -18z"/>
<path d="M5528 3933 c17 -2 47 -2 65 0 17 2 3 4 -33 4 -36 0 -50 -2 -32 -4z"/>
<path d="M5602 3905 c9 -9 68 -12 68 -4 0 5 -16 9 -37 9 -20 0 -34 -2 -31 -5z"/>
<path d="M6263 3845 c0 -33 2 -45 4 -27 2 18 2 45 0 60 -2 15 -4 0 -4 -33z"/>
<path d="M4960 3856 c0 -31 6 -34 13 -6 3 11 1 23 -4 26 -5 3 -9 -6 -9 -20z"/>
<path d="M5688 3863 c7 -3 16 -2 19 1 4 3 -2 6 -13 5 -11 0 -14 -3 -6 -6z"/>
<path d="M4733 3790 c0 -30 2 -43 4 -27 2 15 2 39 0 55 -2 15 -4 2 -4 -28z"/>
<path d="M5743 3833 c9 -2 23 -2 30 0 6 3 -1 5 -18 5 -16 0 -22 -2 -12 -5z"/>
<path d="M4990 3800 c0 -5 5 -10 10 -10 6 0 10 5 10 10 0 6 -4 10 -10 10 -5 0
-10 -4 -10 -10z"/>
<path d="M5173 3803 c10 -10 67 -11 67 -1 0 4 -16 8 -37 8 -20 0 -33 -3 -30
-7z"/>
<path d="M5770 3805 c0 -2 9 -9 19 -14 14 -8 20 -7 25 4 4 11 -2 15 -19 15
-14 0 -25 -2 -25 -5z"/>
<path d="M6293 3745 c0 -33 2 -45 4 -27 2 18 2 45 0 60 -2 15 -4 0 -4 -33z"/>
<path d="M5815 3774 c-10 -8 -13 -14 -7 -14 7 0 20 -8 31 -19 13 -13 27 -17
47 -13 22 5 24 7 10 10 -10 2 -28 14 -40 27 -19 20 -24 21 -41 9z m45 -24 c0
-5 -4 -10 -10 -10 -5 0 -10 5 -10 10 0 6 5 10 10 10 6 0 10 -4 10 -10z"/>
<path d="M5012 3768 c-9 -4 24 -6 73 -6 92 1 91 5 -3 10 -29 2 -61 0 -70 -4z"/>
<path d="M4695 3730 c3 -5 8 -10 11 -10 2 0 4 5 4 10 0 6 -5 10 -11 10 -5 0
-7 -4 -4 -10z"/>
<path d="M5887 3714 c-3 -4 -4 -11 -1 -15 7 -12 54 -11 54 1 0 6 -4 10 -9 10
-5 0 -16 2 -23 5 -8 3 -17 3 -21 -1z"/>
<path d="M5930 3670 c0 -5 18 -10 40 -10 22 0 40 5 40 10 0 6 -18 10 -40 10
-22 0 -40 -4 -40 -10z"/>
<path d="M6332 3645 c0 -16 2 -22 5 -12 2 9 2 23 0 30 -3 6 -5 -1 -5 -18z"/>
<path d="M4660 3634 c0 -10 -6 -14 -15 -10 -12 4 -15 -3 -14 -32 1 -20 3 -29
6 -19 3 10 14 17 28 17 13 0 27 5 30 10 3 6 1 10 -4 10 -6 0 -11 9 -11 20 0
11 -4 20 -10 20 -5 0 -10 -7 -10 -16z"/>
<path d="M6083 3633 c117 -4 149 -22 40 -24 -59 -1 -63 -2 -33 -9 19 -5 64
-10 99 -12 62 -3 64 -4 65 -30 1 -16 -3 -28 -9 -28 -5 0 -21 -9 -35 -20 l-25
-20 26 0 c14 0 30 -5 36 -11 14 -14 123 -22 123 -8 0 5 -15 9 -32 9 -19 0 -28
4 -21 8 8 5 9 13 3 22 -6 8 -10 11 -10 7 0 -4 -6 -2 -13 5 -12 10 -10 15 7 29
19 15 19 17 3 33 -9 10 -17 12 -17 6 0 -7 -6 -5 -16 4 -8 9 -20 16 -25 16 -5
0 -9 7 -9 15 0 13 -20 15 -132 13 l-133 -2 108 -3z"/>
<path d="M4710 3600 c0 -6 7 -10 15 -10 8 0 15 2 15 4 0 2 -7 6 -15 10 -8 3
-15 1 -15 -4z"/>
<path d="M5760 3570 c0 -13 7 -16 30 -12 34 5 32 17 -5 24 -19 4 -25 1 -25
-12z"/>
<path d="M4601 3568 c-1 -9 -8 -21 -17 -26 -14 -8 -13 -10 5 -15 26 -6 30 1
20 33 -4 15 -7 18 -8 8z"/>
<path d="M4735 3570 c3 -5 17 -10 31 -10 23 0 24 -2 24 -79 0 -44 5 -83 10
-86 6 -4 10 18 10 59 0 49 3 66 14 66 7 0 28 3 46 6 30 6 32 5 25 -15 -5 -16
-2 -21 13 -21 21 0 30 -30 24 -82 -3 -26 -7 -28 -47 -28 -37 0 -44 3 -48 23
-3 16 -5 13 -6 -10 l-1 -33 75 0 c60 0 75 3 75 15 0 8 3 15 8 15 4 0 12 11 18
24 9 20 9 26 -2 30 -8 3 -13 11 -12 18 2 6 -9 18 -24 25 -16 8 -28 18 -28 23
0 5 -7 7 -15 4 -9 -4 -15 0 -15 10 0 10 -9 16 -22 16 -27 0 -63 19 -38 20 13
0 13 1 0 10 -20 13 -123 13 -115 0z"/>
<path d="M6525 3570 c-15 -6 -6 -9 33 -9 28 -1 52 4 52 9 0 12 -57 12 -85 0z"/>
<path d="M5791 3536 c8 -8 88 -10 95 -3 4 4 -17 7 -46 7 -29 0 -51 -2 -49 -4z"/>
<path d="M6448 3533 c17 -2 47 -2 65 0 17 2 3 4 -33 4 -36 0 -50 -2 -32 -4z"/>
<path d="M4497 3510 c-37 -3 -67 -8 -67 -12 0 -5 0 -15 0 -23 0 -13 11 -15 58
-13 39 2 56 7 55 16 -2 6 6 12 16 12 23 0 37 16 18 21 -6 2 -42 2 -80 -1z"/>
<path d="M5870 3500 c8 -5 25 -10 37 -10 12 0 23 -6 25 -12 3 -8 30 -15 67
-18 34 -3 61 -9 61 -13 0 -4 6 -15 15 -23 20 -20 20 -48 0 -40 -8 3 -15 1 -15
-5 0 -6 -4 -8 -9 -4 -5 3 -12 1 -16 -5 -3 -5 1 -10 9 -10 9 0 16 -5 16 -10 0
-6 -6 -10 -12 -9 -7 1 -35 0 -63 -1 -47 -2 -48 -3 -15 -9 50 -9 100 -1 100 15
0 8 9 14 20 14 16 0 20 7 20 30 0 38 27 70 60 70 14 0 32 5 40 10 10 7 -32 10
-130 11 -80 1 -137 3 -127 6 34 9 5 23 -46 23 -37 0 -48 -3 -37 -10z"/>
<path d="M6345 3500 c-8 -13 85 -13 105 0 11 7 -1 10 -42 10 -31 0 -60 -4 -63
-10z"/>
<path d="M5131 3458 c0 -9 -9 -19 -18 -21 -10 -3 -3 -5 15 -6 l32 -1 0 -54 c0
-30 -4 -58 -10 -61 -5 -3 -10 -1 -10 5 0 7 -6 5 -15 -4 -17 -17 -20 -30 -5
-21 6 3 10 2 10 -3 0 -14 -23 -21 -53 -15 -16 3 -27 1 -27 -6 0 -7 26 -11 74
-11 l75 0 -15 36 c-18 43 -12 86 11 78 8 -4 15 -2 15 4 0 6 12 14 27 19 27 9
27 10 -17 18 l-45 9 70 6 70 6 -87 2 c-73 2 -87 5 -91 20 -4 15 -5 15 -6 0z"/>
<path d="M5630 3436 c0 -9 37 -12 55 -5 15 6 11 8 -17 8 -21 1 -38 -1 -38 -3z"/>
<path d="M5300 3410 l-35 -6 30 -9 c17 -4 33 -12 36 -17 3 -6 9 0 12 11 6 26
1 29 -43 21z"/>
<path d="M5697 3398 c15 -7 30 -7 50 0 26 10 24 10 -22 11 -42 0 -46 -2 -28
-11z"/>
<path d="M5359 3383 c-1 -4 0 -38 1 -75 1 -46 -2 -68 -10 -68 -6 0 -9 4 -6 8
2 4 1 14 -4 21 -6 10 -9 8 -15 -8 -6 -18 -15 -21 -73 -23 l-67 -2 63 -3 c64
-4 87 -22 30 -24 l-33 -1 35 -8 c60 -12 65 -15 71 -31 5 -11 17 -14 45 -10
l39 4 -32 10 c-26 8 -33 16 -34 36 -3 54 8 101 22 101 6 0 16 6 23 13 9 9 5
18 -21 40 -18 16 -33 25 -34 20z"/>
<path d="M5760 3370 c0 -5 19 -10 43 -9 32 0 37 2 22 9 -28 12 -65 12 -65 0z"/>
<path d="M5467 3333 c20 -3 33 -11 35 -21 3 -13 5 -12 10 6 6 20 3 22 -35 20
-36 -1 -38 -2 -10 -5z"/>
<path d="M5857 3333 c28 -4 31 -7 28 -31 -1 -15 -8 -26 -14 -24 -6 1 -11 -7
-11 -18 0 -18 -7 -20 -71 -20 -42 0 -68 4 -64 10 3 5 -9 13 -27 18 -21 6 -34
5 -37 -2 -2 -5 1 -12 7 -14 9 -3 9 -9 2 -23 -8 -14 -21 -19 -49 -19 -33 0 -40
4 -45 25 -4 14 -13 25 -21 25 -9 0 -15 10 -15 25 0 14 -3 25 -7 25 -5 0 -8
-29 -8 -65 0 -62 -1 -65 -25 -66 -27 0 -74 -17 -52 -18 6 -1 12 -6 12 -12 0
-8 -12 -10 -35 -6 -19 3 -37 1 -40 -4 -4 -5 22 -9 60 -9 56 0 66 3 61 15 -3 9
0 15 8 15 8 0 16 7 20 15 4 12 24 15 93 15 76 0 91 3 106 20 13 16 29 20 81
20 55 0 64 3 62 18 -1 11 5 16 17 14 10 -2 17 3 17 13 0 10 10 15 33 16 17 0
41 4 52 9 17 7 16 9 -10 9 -43 2 -76 12 -69 22 3 5 -16 8 -43 7 -35 -1 -39 -2
-16 -5z m-367 -183 c0 -5 -4 -10 -10 -10 -5 0 -10 5 -10 10 0 6 5 10 10 10 6
0 10 -4 10 -10z"/>
<path d="M5025 3300 c4 -6 11 -8 16 -5 14 9 11 15 -7 15 -8 0 -12 -5 -9 -10z"/>
<path d="M3515 8242 c-60 -20 -110 -105 -75 -127 6 -4 8 -9 6 -13 -4 -7 20
-33 30 -32 3 1 16 -10 29 -24 17 -18 19 -26 9 -30 -22 -8 -28 -72 -10 -109 8
-17 16 -28 16 -24 0 4 11 -3 24 -17 18 -21 33 -26 70 -26 25 0 46 5 46 10 0 6
6 10 13 10 13 0 82 70 89 90 1 5 19 11 40 12 44 4 59 24 42 56 -6 13 -14 23
-18 23 -26 -3 -35 3 -47 32 -21 52 -43 61 -61 22 -11 -25 -37 -28 -80 -10 -19
8 -25 55 -8 55 6 0 10 14 10 30 0 17 -4 30 -10 30 -5 0 -10 7 -10 15 0 27 -59
41 -105 27z m39 -59 c4 -5 12 -8 17 -8 5 0 9 -3 9 -7 0 -5 0 -15 0 -25 0 -9
-3 -14 -6 -10 -4 3 -13 0 -20 -8 -18 -18 -36 -11 -50 19 -10 21 -8 26 10 34
26 13 31 14 40 5z m99 -173 c9 0 17 -5 17 -11 0 -7 7 -17 16 -24 15 -10 14
-14 -10 -38 -33 -34 -85 -37 -93 -7 -3 11 -9 17 -14 14 -5 -3 -9 7 -9 22 0 32
27 56 55 49 11 -3 28 -5 38 -5z"/>
<path d="M7235 8128 c-39 -29 -74 -68 -81 -93 -4 -11 -12 -23 -18 -27 -16 -10
-15 -140 2 -145 6 -3 12 -10 12 -17 0 -21 53 -62 101 -78 37 -13 49 -13 77 -1
17 7 32 11 32 8 0 -3 6 0 14 7 8 8 11 22 6 38 -5 21 -11 24 -36 21 -28 -4 -57
-5 -101 -2 -15 1 -25 9 -29 26 -3 14 -13 25 -23 25 -14 0 -14 2 -1 11 11 8 12
12 3 16 -7 2 -13 9 -13 14 0 6 5 7 10 4 6 -3 10 1 10 10 0 44 68 127 114 139
41 10 98 -3 103 -25 3 -11 9 -19 14 -19 5 0 9 -16 9 -36 0 -37 24 -75 33 -51
4 9 8 9 15 -2 8 -11 11 -9 18 10 15 47 5 96 -26 129 -17 18 -30 29 -30 26 0
-3 -9 3 -20 14 -30 30 -153 28 -195 -2z"/>
<path d="M3131 7953 c-1 -7 -8 -13 -16 -13 -26 0 -35 -42 -14 -61 11 -9 19
-21 19 -28 0 -6 7 -11 15 -11 18 0 18 -2 3 -35 -6 -14 -17 -25 -23 -25 -7 0
-24 -9 -39 -21 -22 -18 -26 -28 -26 -74 0 -51 3 -57 48 -103 44 -45 87 -69
122 -66 42 3 90 42 90 73 0 13 11 24 34 32 32 12 67 49 46 49 -5 0 -10 4 -10
9 0 5 -36 45 -80 89 -44 44 -80 83 -80 85 0 9 -60 69 -60 61 -1 -5 -7 5 -15
21 -7 17 -14 24 -14 18z m99 -213 c3 -4 16 -22 29 -39 32 -41 36 -78 10 -86
-10 -4 -19 -13 -19 -21 0 -43 -92 9 -124 71 -18 34 -2 83 29 87 26 4 69 -3 75
-12z"/>
<path d="M7543 7802 c-13 -2 -23 -8 -23 -13 0 -5 -6 -9 -13 -9 -15 0 -67 -54
-67 -70 0 -5 -4 -10 -8 -10 -12 0 -14 -87 -2 -95 5 -3 10 -15 10 -26 0 -10 4
-19 9 -19 4 0 20 -11 35 -25 15 -14 38 -25 52 -26 90 -4 103 -1 135 33 16 18
29 38 29 44 0 7 5 14 10 16 14 4 15 93 1 110 -6 7 -20 25 -32 41 -11 15 -27
27 -35 27 -8 0 -12 5 -9 10 3 6 0 11 -7 12 -31 3 -65 3 -85 0z m44 -65 c4 10
7 10 18 0 7 -6 22 -19 34 -27 15 -10 21 -25 21 -50 0 -26 -3 -31 -10 -20 -8
12 -10 12 -10 -5 -1 -34 -26 -56 -70 -62 -37 -5 -45 -3 -66 22 -23 27 -25 60
-4 75 3 3 10 13 13 23 4 11 16 21 27 24 11 3 20 13 20 22 0 14 2 14 11 1 8
-11 12 -12 16 -3z"/>
<path d="M2823 7650 c-7 -18 -6 -29 1 -36 14 -13 61 -2 60 14 -1 7 -2 18 -2
26 -1 7 -13 16 -25 18 -19 4 -26 -1 -34 -22z"/>
<path d="M2926 7584 c-3 -8 -13 -14 -23 -14 -17 -1 -17 -1 -1 -11 9 -5 15 -16
12 -23 -3 -9 3 -17 16 -21 11 -4 42 -28 69 -53 26 -26 60 -57 75 -69 27 -23
52 -31 41 -13 -3 6 0 10 7 10 7 0 13 11 13 25 0 14 -3 25 -7 25 -3 0 -37 29
-75 65 -79 76 -119 101 -127 79z"/>
<path d="M7816 7556 c-10 -6 -29 -20 -41 -31 -58 -52 -99 -85 -107 -85 -4 0
-8 -7 -8 -16 0 -8 -3 -13 -7 -11 -5 3 -14 -1 -21 -9 -7 -8 -8 -14 -2 -14 5 0
10 -5 10 -11 0 -6 7 -17 15 -25 8 -9 15 -11 15 -5 0 6 7 11 15 11 8 0 27 14
42 30 14 17 32 30 40 30 7 0 13 4 13 9 0 5 13 16 29 24 23 11 34 12 57 2 40
-16 40 -56 0 -87 -16 -13 -47 -40 -69 -60 -22 -21 -43 -38 -47 -38 -5 0 -5
-12 -1 -27 11 -40 45 -37 90 9 21 21 42 38 46 38 3 0 13 7 21 15 9 8 24 15 35
15 10 0 19 5 19 11 0 6 7 3 16 -5 8 -9 20 -16 25 -16 5 0 9 -12 9 -26 0 -17
-14 -38 -42 -65 -23 -21 -47 -39 -53 -39 -5 0 -16 -9 -23 -20 -7 -11 -19 -20
-27 -20 -18 0 -20 -16 -2 -23 9 -4 8 -8 -3 -16 -12 -9 -11 -11 8 -11 12 0 22
-5 22 -10 0 -12 41 9 53 28 5 7 12 10 18 7 5 -4 9 -2 9 3 0 11 46 62 57 62 22
1 55 52 55 85 0 37 -34 84 -61 85 -23 0 -51 41 -51 73 0 17 -2 28 -5 25 -3 -3
-26 13 -50 36 -30 27 -45 50 -45 66 0 20 -2 22 -10 10 -7 -11 -12 -12 -17 -4
-6 9 -13 9 -27 0z"/>
<path d="M2624 7402 c-4 -9 -6 -20 -6 -24 1 -5 -2 -8 -8 -8 -5 0 -2 -16 7 -35
9 -19 20 -32 25 -29 4 3 8 0 8 -5 0 -6 0 -14 1 -18 1 -14 43 -78 62 -95 10 -9
17 -19 15 -22 -2 -3 5 -15 15 -26 9 -11 17 -24 17 -28 0 -4 6 -14 13 -20 6 -7
12 -17 12 -22 0 -4 12 -19 27 -33 l26 -24 14 25 c14 26 12 63 -3 73 -22 13
-19 56 6 85 14 16 28 37 31 46 3 9 14 20 25 23 10 4 19 12 19 18 0 9 2 9 8 1
4 -7 21 -13 37 -14 46 -3 57 -1 50 10 -3 6 0 10 8 10 10 0 13 8 10 25 -4 20
-12 25 -52 30 -25 3 -56 10 -69 16 -13 5 -37 9 -55 10 -27 0 -29 2 -12 9 16 7
13 9 -17 9 -20 1 -49 6 -65 12 -15 6 -53 12 -85 14 -46 3 -58 1 -64 -13z m131
-72 c-4 -6 6 -10 22 -10 26 -1 91 -29 67 -30 -5 0 -16 -16 -24 -35 -10 -25
-16 -31 -23 -23 -7 10 -10 10 -14 1 -7 -18 -23 -16 -23 2 0 8 -4 15 -9 15 -11
0 -22 26 -27 63 -3 22 0 27 17 27 11 0 17 -4 14 -10z"/>
<path d="M8153 7124 c-3 -8 -13 -14 -22 -14 -9 0 -25 -7 -35 -15 -11 -8 -27
-15 -37 -15 -9 0 -19 -6 -22 -13 -3 -7 -24 -19 -46 -26 -23 -6 -39 -16 -36
-21 3 -5 1 -11 -4 -14 -5 -4 -5 -15 2 -29 11 -23 42 -30 55 -11 10 14 80 44
102 44 11 0 20 4 20 9 0 18 40 19 60 1 29 -26 25 -57 -10 -75 -16 -9 -30 -20
-30 -25 0 -6 -6 -10 -12 -10 -24 0 -111 -47 -97 -53 9 -3 6 -8 -11 -14 l-25
-10 23 -7 c12 -4 22 -12 22 -17 0 -5 7 -9 15 -9 8 0 15 5 15 10 0 6 8 10 18
10 9 0 26 7 36 15 11 8 28 15 38 15 10 0 18 4 18 9 0 18 51 18 74 0 35 -28 31
-63 -10 -79 -18 -7 -31 -17 -28 -22 3 -4 -1 -8 -10 -8 -8 0 -36 -11 -64 -25
-37 -18 -48 -30 -47 -45 1 -12 7 -25 14 -29 16 -11 62 -5 70 8 4 6 25 18 46
27 22 9 42 19 45 23 3 3 19 14 35 23 17 9 31 26 33 37 2 12 8 21 13 21 6 0 7
6 2 13 -4 6 -8 14 -9 17 -4 21 -22 48 -46 68 -22 19 -28 32 -28 64 0 29 -7 47
-27 68 -15 16 -30 27 -35 24 -4 -3 -8 10 -9 28 0 18 -3 40 -7 48 -9 19 -42 22
-49 4z"/>
<path d="M2400 7021 c0 -5 -9 -11 -21 -14 -13 -4 -18 -10 -14 -17 4 -7 2 -15
-4 -19 -7 -5 2 -15 24 -27 19 -10 35 -22 35 -26 0 -5 8 -8 18 -8 19 0 105 -41
110 -52 2 -5 8 -8 14 -8 15 0 82 -33 93 -46 6 -6 20 -14 33 -17 33 -8 50 36
24 62 -21 21 -97 61 -117 61 -8 0 -15 4 -15 9 0 5 -16 15 -36 21 -19 7 -38 18
-40 25 -3 7 -18 15 -34 19 -16 3 -39 15 -50 26 -11 11 -20 16 -20 11z"/>
<path d="M2397 6747 c-44 -44 -61 -109 -40 -157 12 -29 16 -32 22 -17 4 10 10
18 14 18 20 -2 23 2 19 32 -2 17 3 45 11 61 15 28 15 28 29 7 7 -11 19 -21 27
-21 12 0 12 -2 -2 -12 -23 -18 -27 -115 -6 -145 22 -32 62 -45 98 -32 34 12
43 29 46 82 1 21 10 46 21 57 37 37 45 50 33 50 -6 0 -9 7 -5 15 4 11 -2 15
-22 16 -15 1 -30 1 -34 0 -5 0 -8 3 -8 8 0 5 -19 16 -42 26 -24 9 -46 21 -49
26 -3 5 -22 12 -42 14 -31 4 -42 0 -70 -28z m166 -100 c9 -3 17 -14 17 -24 0
-15 2 -16 10 -3 8 12 10 11 10 -7 0 -13 -4 -23 -10 -23 -5 0 -10 -7 -10 -15 0
-8 -6 -15 -14 -15 -8 0 -16 -6 -18 -12 -8 -23 -38 18 -38 51 0 33 21 76 30 62
3 -4 13 -10 23 -14z m-63 -17 c0 -5 -2 -10 -4 -10 -3 0 -8 5 -11 10 -3 6 -1
10 4 10 6 0 11 -4 11 -10z"/>
<path d="M8490 6659 c0 -9 -6 -19 -12 -21 -16 -6 9 -32 39 -42 23 -7 35 18 26
53 -7 26 -53 35 -53 10z"/>
<path d="M8378 6623 c-10 -2 -18 -9 -18 -14 0 -5 -9 -9 -19 -9 -11 0 -22 -4
-25 -9 -4 -5 -29 -15 -56 -22 -28 -7 -50 -16 -50 -21 0 -4 -7 -8 -15 -8 -8 0
-15 -9 -15 -19 0 -11 -6 -22 -12 -24 -8 -3 -6 -6 5 -6 9 -1 17 -5 17 -10 0 -5
11 -8 25 -8 14 0 25 3 25 8 0 5 9 9 20 9 11 0 20 4 20 10 0 5 16 12 35 16 19
3 38 10 41 15 3 5 16 9 30 9 14 0 22 4 19 10 -3 6 3 10 13 10 20 0 35 30 23
48 -8 12 -42 21 -63 15z"/>
<path d="M8461 6502 c-1 -7 -9 -16 -18 -19 -21 -8 -44 -29 -38 -35 3 -2 -25
-13 -60 -23 -36 -10 -65 -22 -65 -27 0 -4 -5 -8 -11 -8 -36 0 -52 -77 -22
-108 16 -17 50 3 58 35 3 15 13 23 26 23 11 0 17 5 14 10 -3 6 4 10 17 10 13
0 31 7 42 15 16 12 23 12 50 -2 17 -9 34 -21 38 -27 6 -9 28 32 28 54 0 5 16
14 36 20 27 9 33 15 23 21 -12 8 -12 10 -1 18 17 10 -36 31 -79 31 -15 0 -30
6 -32 13 -4 9 -6 9 -6 -1z"/>
<path d="M8490 6308 c0 -4 8 -8 18 -9 12 0 10 -3 -8 -10 -13 -6 -27 -15 -31
-21 -4 -6 -30 -13 -58 -16 -28 -2 -51 -8 -51 -11 0 -4 -15 -12 -34 -19 -34
-13 -50 -39 -46 -77 2 -24 8 -31 36 -39 16 -5 23 0 35 26 15 33 43 47 107 50
17 1 32 5 32 10 0 5 7 3 15 -6 8 -8 15 -18 15 -23 0 -4 11 -8 25 -8 19 0 25 5
25 21 0 26 15 39 55 49 17 4 24 10 18 12 -19 7 -16 23 5 23 25 1 -46 30 -73
30 -13 0 -25 6 -27 13 -5 13 -58 18 -58 5z"/>
<path d="M2273 6102 c-18 -2 -33 -7 -33 -13 0 -5 -8 -9 -17 -9 -25 0 -60 -40
-70 -81 -11 -41 3 -109 23 -109 8 0 14 -5 14 -11 0 -38 170 -54 211 -19 13 10
20 19 16 20 -4 0 1 10 13 22 14 16 20 35 20 70 0 26 -4 48 -8 48 -5 0 -15 11
-22 25 -8 14 -16 21 -20 16 -3 -6 -17 -14 -30 -20 -18 -7 -20 -10 -7 -10 12
-1 17 -9 17 -32 0 -17 4 -28 10 -24 6 3 10 -1 10 -10 0 -9 -4 -13 -10 -10 -5
3 -10 -3 -10 -14 0 -28 -36 -47 -57 -30 -12 11 -14 26 -9 78 4 36 12 69 19 73
9 6 9 8 -1 8 -7 0 -16 8 -20 18 -5 12 -16 16 -39 14z m4 -88 c16 -5 21 -12 19
-32 -2 -15 -8 -27 -14 -27 -6 0 -17 -8 -25 -19 -13 -18 -15 -18 -40 8 -14 14
-22 26 -17 26 6 0 10 8 10 18 0 32 19 39 67 26z"/>
<path d="M8415 6064 c-43 -16 -74 -48 -75 -77 0 -10 -4 -15 -10 -12 -6 4 -10
-11 -10 -37 0 -31 3 -39 10 -28 10 16 10 15 14 -32 1 -7 9 -20 18 -29 10 -9
15 -19 11 -23 -7 -7 11 -9 42 -6 26 2 45 20 22 20 -22 0 -22 17 1 23 12 3 10
5 -7 6 -13 0 -21 4 -18 8 4 3 -6 17 -21 31 -17 16 -22 27 -14 30 6 2 12 12 12
22 0 35 64 30 65 -5 1 -36 18 -105 26 -105 5 0 9 -7 9 -15 0 -17 44 -21 63 -5
7 6 23 18 36 28 27 21 45 104 27 122 -5 5 -7 10 -2 10 4 0 0 13 -9 28 -35 58
-108 76 -190 46z m135 -74 c6 -11 18 -20 28 -21 10 0 12 -3 5 -6 -7 -2 -13
-11 -13 -19 0 -8 -9 -23 -21 -35 -20 -20 -21 -20 -34 -2 -8 10 -15 26 -15 36
0 9 -8 17 -17 18 -13 0 -11 3 7 10 19 8 21 12 11 19 -13 8 -4 13 31 19 4 0 12
-8 18 -19z"/>
<path d="M2328 5823 c7 -3 16 -2 19 1 4 3 -2 6 -13 5 -11 0 -14 -3 -6 -6z"/>
<path d="M2351 5759 c-6 -18 -11 -43 -11 -57 0 -26 -19 -102 -29 -114 -3 -4
-53 -3 -111 2 -212 19 -195 19 -207 -7 -6 -12 -7 -23 -2 -23 5 0 9 -7 9 -15 0
-12 13 -15 59 -15 33 0 61 -4 63 -9 2 -5 57 -11 124 -12 104 -3 124 -1 138 14
10 9 13 17 7 17 -6 0 -11 17 -10 38 1 33 2 34 9 12 7 -22 8 -19 9 16 1 23 4
69 7 103 6 52 5 61 -10 61 -9 0 -16 5 -16 10 0 22 -19 8 -29 -21z"/>
<path d="M8443 5740 c-13 -5 -23 -14 -23 -20 0 -5 -7 -10 -15 -10 -8 0 -15 -9
-15 -20 0 -11 -4 -20 -10 -20 -6 0 -10 -27 -10 -61 0 -37 4 -58 10 -54 6 3 10
-2 10 -12 0 -10 10 -27 21 -37 20 -17 23 -17 31 -2 5 10 19 21 31 26 l22 9
-22 0 c-16 1 -23 7 -23 22 0 12 -8 23 -19 26 -21 5 -25 53 -4 53 6 0 19 10 27
22 13 18 16 19 16 5 0 -9 5 -17 10 -17 6 0 10 -13 10 -29 0 -17 5 -33 11 -36
5 -4 9 -17 8 -28 -7 -59 32 -87 81 -57 29 17 66 61 63 72 -2 5 2 8 7 8 6 0 10
20 10 45 0 25 -4 45 -10 45 -5 0 -10 9 -10 20 0 13 -9 22 -25 26 -14 3 -23 10
-20 14 11 18 -121 26 -162 10z m169 -126 c-5 -29 -40 -47 -60 -31 -15 12 -13
76 2 93 17 18 64 -32 58 -62z"/>
<path d="M8553 5290 c-6 -14 -12 -19 -12 -12 -2 23 -21 12 -21 -12 0 -51 -17
-75 -57 -81 -21 -4 -47 -10 -58 -15 -17 -7 -17 -9 -2 -9 9 -1 17 -7 17 -14 0
-8 12 -19 26 -26 23 -10 25 -16 20 -44 -14 -73 -15 -87 -6 -87 6 0 10 7 10 16
0 10 6 14 15 11 8 -4 17 -2 21 4 13 21 55 30 70 14 9 -8 22 -15 30 -15 8 0 14
-7 14 -15 0 -25 17 -17 24 11 4 15 2 32 -3 37 -14 14 -15 70 -1 62 5 -3 17 6
26 20 9 14 23 25 31 25 31 0 2 16 -33 18 -45 3 -74 18 -74 37 0 8 -4 15 -9 15
-6 0 -11 19 -13 42 -3 41 -3 42 -15 18z"/>
<path d="M2160 5277 c0 -13 -9 -32 -20 -42 -11 -10 -22 -25 -25 -34 -3 -11
-18 -18 -42 -19 -52 -4 -73 -17 -39 -26 15 -4 24 -11 20 -17 -3 -6 3 -13 15
-16 17 -4 21 -13 21 -44 0 -22 -3 -38 -8 -36 -9 3 -12 -7 -11 -35 1 -17 2 -19
6 -5 2 9 8 17 13 17 5 0 11 -8 13 -17 4 -17 5 -17 6 -1 0 10 15 24 31 33 27
14 33 14 59 0 16 -8 31 -20 33 -26 5 -15 48 -23 48 -9 0 6 -8 10 -17 10 -15 0
-16 2 -3 10 12 7 12 12 2 22 -23 23 -14 63 20 92 17 14 39 26 47 26 30 1 -11
18 -55 22 -46 6 -67 15 -59 28 3 4 -2 13 -9 20 -8 6 -18 25 -21 41 -8 35 -25
39 -25 6z"/>
<path d="M8383 4675 c-10 -11 -10 -15 0 -18 9 -4 9 -6 0 -6 -7 -1 -13 -10 -13
-22 0 -11 5 -17 10 -14 6 3 10 -4 10 -16 0 -12 -3 -19 -7 -15 -9 9 -31 -45
-25 -61 2 -7 15 -13 27 -13 32 0 56 -10 49 -21 -3 -5 20 -9 50 -9 30 0 57 -4
60 -9 7 -11 56 -20 73 -14 7 3 13 11 13 19 0 8 5 14 10 14 6 0 10 5 10 10 0 6
-20 15 -45 22 -25 7 -45 16 -45 20 0 4 -15 8 -34 8 -19 0 -45 9 -60 21 -21 17
-26 29 -26 66 0 34 -3 44 -14 40 -7 -3 -17 -2 -22 3 -5 5 -14 2 -21 -5z"/>
<path d="M2450 4663 c-14 -7 -37 -13 -52 -13 -15 0 -29 -4 -33 -10 -3 -5 -33
-17 -65 -26 -33 -9 -60 -21 -60 -25 0 -5 -14 -9 -31 -9 -18 0 -47 -9 -65 -21
-29 -18 -32 -23 -21 -40 6 -10 20 -19 29 -19 28 0 131 29 137 39 8 12 42 16
64 6 18 -7 5 -26 -79 -116 -13 -14 -24 -31 -24 -37 0 -7 -7 -12 -15 -12 -8 0
-15 -7 -15 -15 0 -9 -6 -18 -13 -21 -11 -4 -13 -23 -8 -71 1 -14 84 -8 89 7 2
5 14 10 27 10 12 0 39 7 58 15 20 8 48 15 62 15 15 0 24 4 20 10 -3 6 0 10 7
11 7 0 21 3 30 5 10 3 32 7 49 11 19 3 33 13 36 24 3 11 10 19 16 19 6 0 1 7
-11 16 -16 11 -32 13 -55 8 -17 -4 -34 -8 -37 -9 -53 -12 -70 -18 -70 -26 0
-12 -67 -12 -75 1 -3 5 3 18 15 30 11 11 20 25 20 32 0 6 3 8 7 4 4 -4 17 10
30 31 13 21 23 34 23 28 0 -5 11 8 25 30 13 22 25 36 25 30 1 -15 24 28 25 48
1 9 -4 22 -12 28 -7 6 -13 8 -14 3 0 -5 -3 -2 -7 7 -6 13 -11 13 -32 2z"/>
<path d="M8355 4477 c-4 -10 -13 -16 -21 -13 -7 3 -14 -3 -17 -12 -4 -20 50
-72 74 -72 26 0 119 -42 114 -51 -3 -4 -1 -10 4 -13 4 -3 9 -17 9 -30 0 -38
-41 -48 -117 -29 -33 8 -58 19 -55 24 5 8 -33 14 -66 9 -20 -2 -49 -30 -32
-30 7 0 12 -8 12 -18 0 -11 8 -18 20 -19 11 -1 35 -9 52 -17 17 -9 42 -16 55
-16 12 0 23 -4 23 -9 0 -5 19 -12 42 -16 32 -6 44 -4 53 9 7 9 17 16 22 16 11
0 26 36 24 57 -1 6 3 14 9 18 15 9 12 25 -5 25 -8 0 -15 5 -15 10 0 6 7 10 15
10 8 0 15 5 15 11 0 5 5 7 10 4 6 -3 10 3 10 14 0 12 6 21 13 21 6 0 3 6 -8
12 -11 7 -26 18 -33 25 -7 7 -19 13 -25 13 -28 0 -87 22 -82 30 3 5 -15 12
-39 15 -30 5 -46 13 -49 24 -3 14 -5 14 -12 -2z"/>
<path d="M2462 4262 c-9 -27 -7 -33 21 -63 18 -19 31 -41 31 -49 -1 -8 -2 -20
-3 -25 -2 -18 -54 -12 -56 6 -4 23 -56 76 -87 88 -18 7 -37 7 -53 1 -32 -12
-66 -46 -61 -62 3 -7 7 -26 10 -41 4 -16 11 -25 17 -21 6 3 13 -3 16 -15 3
-12 9 -21 14 -21 5 0 9 -15 9 -34 0 -19 5 -38 10 -41 6 -4 8 -11 5 -16 -4 -5
5 -9 19 -9 14 0 26 3 26 8 0 10 58 42 76 42 8 0 14 3 14 8 0 4 20 16 45 27 25
11 45 25 45 32 0 7 5 13 10 13 6 0 10 18 10 40 0 22 -4 40 -9 40 -5 0 -12 16
-15 35 -4 21 -13 35 -22 35 -8 0 -17 7 -20 15 -4 8 -10 13 -14 10 -5 -3 -13 2
-18 11 -8 14 -11 12 -20 -14z m-78 -108 c9 -3 16 -11 16 -16 0 -6 8 -17 18
-25 12 -10 14 -16 5 -19 -7 -3 -13 -11 -13 -18 0 -8 -10 -11 -30 -8 -16 2 -30
8 -30 13 0 5 -6 9 -14 9 -17 0 -27 45 -13 59 12 12 37 14 61 5z"/>
<path d="M8245 4130 c3 -5 -3 -10 -14 -10 -11 0 -25 -6 -31 -12 -45 -54 -51
-65 -47 -86 3 -15 -3 -28 -17 -40 -29 -22 -40 -52 -21 -52 8 0 15 -4 15 -8 0
-4 23 -16 50 -27 28 -11 50 -22 50 -26 0 -3 20 -14 45 -25 25 -10 45 -22 45
-26 0 -4 6 -8 14 -8 17 0 80 -32 84 -42 6 -14 52 -8 52 6 0 8 5 16 12 18 18 6
-22 46 -59 59 -25 8 -32 15 -29 32 1 11 8 23 14 25 7 2 10 8 6 13 -3 5 1 9 9
9 29 0 31 98 2 127 -8 8 -15 18 -15 22 0 9 -66 41 -85 41 -8 0 -15 5 -15 10 0
6 -16 10 -36 10 -21 0 -33 -4 -29 -10z m117 -104 c18 -14 27 -31 27 -50 1 -16
-2 -27 -5 -23 -3 3 -16 -5 -29 -19 -22 -24 -65 -33 -65 -14 0 6 -8 10 -17 10
-64 2 -93 108 -35 128 34 11 86 -2 124 -32z"/>
<path d="M2601 4013 c-1 -13 -5 -23 -11 -23 -5 0 -10 -6 -10 -14 0 -8 -18 -22
-40 -32 -22 -10 -40 -21 -40 -26 0 -4 -6 -8 -14 -8 -22 0 -76 -33 -76 -47 0
-7 -8 -17 -17 -22 -10 -6 -13 -11 -7 -11 7 0 15 -8 18 -17 15 -42 31 -59 51
-53 14 3 21 15 24 40 3 38 12 48 53 56 15 4 26 10 23 13 -2 4 9 12 25 18 23 9
32 8 41 -3 6 -8 16 -11 22 -7 5 3 16 -1 22 -11 11 -14 13 -10 18 25 5 41 28
68 59 69 14 0 13 4 -8 25 -20 20 -35 25 -74 25 -29 0 -50 5 -53 13 -3 6 -6 2
-6 -10z"/>
<path d="M2787 3885 c-11 -8 -15 -19 -10 -31 9 -24 33 -49 33 -35 0 6 8 11 18
11 22 0 23 41 1 48 -8 3 -16 8 -19 13 -3 4 -13 2 -23 -6z"/>
<path d="M8047 3845 c-10 -7 -17 -17 -17 -24 0 -6 -4 -11 -10 -11 -5 0 -10
-13 -10 -29 0 -39 -46 -53 -71 -23 -17 21 -28 25 -68 23 -15 -1 -21 -6 -18
-15 3 -7 0 -19 -6 -25 -8 -8 -7 -11 5 -11 8 0 28 -11 44 -25 51 -43 60 -50 75
-53 8 -2 21 -10 30 -18 8 -8 20 -14 26 -14 6 0 13 -7 17 -15 3 -8 11 -15 19
-15 7 0 22 -8 33 -18 55 -50 98 -58 109 -21 8 25 -7 43 -62 75 -55 33 -99 75
-97 94 0 8 2 23 2 33 2 23 45 39 74 27 13 -5 19 -9 14 -9 -5 -1 13 -13 40 -27
27 -14 58 -34 69 -44 15 -13 26 -16 43 -9 13 5 21 13 17 18 -3 5 0 13 6 16 7
5 0 14 -18 26 -15 10 -23 19 -18 19 6 0 -8 9 -30 20 -22 11 -55 29 -74 40 -39
25 -101 32 -124 15z"/>
<path d="M2700 3840 c0 -5 -9 -10 -21 -10 -11 0 -18 -4 -15 -9 3 -4 -14 -17
-37 -27 -23 -10 -51 -27 -61 -36 -11 -10 -25 -18 -32 -18 -6 0 -17 -7 -24 -15
-7 -8 -16 -12 -21 -9 -5 3 -9 -6 -9 -20 0 -14 5 -26 10 -26 6 0 10 -6 10 -14
0 -9 8 -12 25 -8 14 2 25 8 25 11 0 11 79 61 96 61 8 0 14 4 14 8 0 4 16 14
35 21 19 7 33 16 30 21 -3 5 5 16 17 24 l22 16 -22 0 c-13 0 -21 3 -19 8 3 4
-1 13 -9 20 -8 7 -14 8 -14 2z"/>
<path d="M2730 3710 c0 -5 -18 -14 -40 -20 -24 -7 -40 -17 -40 -26 0 -8 -4
-13 -9 -10 -15 9 -41 -41 -41 -78 0 -19 -6 -37 -12 -39 -10 -4 -10 -6 0 -6 6
-1 12 -10 12 -21 0 -11 4 -20 9 -20 5 0 12 -8 15 -17 10 -30 69 -63 111 -63
42 0 125 37 125 56 0 6 7 17 15 24 17 14 15 142 -3 148 -7 2 -12 9 -12 16 0 7
-18 21 -40 32 -22 10 -40 22 -40 27 0 4 -11 7 -25 7 -14 0 -25 -4 -25 -10z
m87 -97 c20 -26 15 -59 -12 -89 -14 -15 -25 -31 -25 -35 0 -5 -20 -9 -44 -9
-37 0 -48 4 -64 28 -26 37 -7 91 43 120 26 16 87 7 102 -15z"/>
<path d="M7790 3663 c0 -13 -6 -23 -12 -23 -9 0 -9 -3 -2 -8 6 -4 13 -15 17
-24 3 -10 17 -20 31 -24 31 -8 43 -54 15 -61 -11 -3 -19 -12 -19 -19 0 -8 -7
-14 -15 -14 -8 0 -16 -4 -16 -10 -2 -12 -6 -28 -9 -35 -11 -24 7 -92 29 -105
9 -6 11 -10 4 -10 -7 0 -13 -5 -13 -10 0 -6 6 -10 13 -9 27 3 36 -2 30 -18 -4
-9 -2 -14 3 -10 6 3 35 0 65 -6 45 -11 59 -10 84 2 34 17 43 26 52 61 3 14 23
42 44 62 28 28 34 38 23 42 -9 3 -13 10 -10 15 3 5 -10 16 -29 25 -19 9 -35
21 -35 26 0 6 -6 10 -13 10 -7 0 -23 10 -37 23 -14 13 -39 32 -55 43 -36 23
-61 42 -88 68 -15 14 -22 16 -25 7 -3 -8 -8 -7 -18 6 -13 17 -13 17 -14 -4z
m198 -210 c12 -13 23 -32 24 -41 3 -36 -3 -52 -18 -52 -8 0 -12 -4 -9 -10 4
-6 -10 -10 -35 -10 -25 0 -39 4 -35 10 3 6 -1 10 -10 10 -54 0 -81 105 -33
127 31 14 87 -3 116 -34z"/>
<path d="M2581 3564 c0 -11 3 -14 6 -6 3 7 2 16 -1 19 -3 4 -6 -2 -5 -13z"/>
<path d="M2962 3466 c-4 -6 -20 -20 -37 -30 -31 -19 -40 -27 -87 -71 -15 -14
-30 -25 -33 -25 -3 0 -14 -9 -25 -20 -11 -11 -17 -20 -12 -20 4 0 13 -14 21
-30 12 -29 14 -30 27 -13 7 10 14 14 14 9 0 -5 15 8 34 28 19 20 39 36 45 36
5 0 14 8 20 17 7 13 21 17 52 16 39 -2 64 -17 53 -34 -2 -4 0 -10 6 -14 10 -6
-18 -54 -32 -55 -4 0 -26 -18 -48 -40 -22 -22 -47 -40 -54 -40 -15 0 -29 -49
-15 -51 19 -3 24 -5 35 -11 11 -7 68 25 59 33 -2 3 11 13 30 24 19 10 35 24
35 32 0 7 7 13 16 13 9 0 18 9 21 20 3 11 12 20 19 20 10 0 14 13 14 40 0 28
-4 40 -14 40 -8 0 -17 9 -21 19 -3 10 -17 22 -31 25 -17 5 -26 15 -31 36 -3
17 -10 30 -15 30 -5 0 -7 4 -4 9 3 5 -3 11 -14 14 -11 3 -23 0 -28 -7z"/>
<path d="M7685 3330 c-4 -6 -11 -8 -16 -5 -5 4 -9 1 -9 -4 0 -6 -3 -10 -7 -10
-20 3 -34 -2 -28 -10 3 -5 -3 -12 -13 -15 -27 -9 -46 -93 -33 -141 13 -47 73
-107 97 -98 12 4 15 3 10 -5 -5 -9 6 -12 38 -12 25 0 46 5 46 10 0 6 7 10 15
10 18 0 65 47 65 65 0 8 5 15 10 15 6 0 10 20 10 45 0 25 -4 45 -10 45 -5 0
-10 8 -10 18 0 17 -39 75 -40 58 0 -6 -6 -1 -14 9 -7 10 -22 20 -32 21 -11 2
-31 5 -46 8 -15 3 -30 1 -33 -4z m59 -81 c-3 -5 1 -9 9 -9 18 0 40 -26 44 -51
5 -31 -15 -69 -42 -79 -31 -12 -95 11 -95 34 0 8 -5 16 -11 18 -5 2 -11 18
-11 35 -1 31 15 56 41 64 22 8 72 -2 65 -12z"/>
<path d="M3154 3212 c-21 -13 3 -52 32 -52 30 0 66 -35 62 -59 -3 -18 -68 -29
-68 -13 0 11 -78 52 -99 52 -19 0 -61 -31 -61 -46 0 -8 -4 -14 -10 -14 -5 0
-10 -11 -10 -25 0 -14 4 -25 9 -25 5 0 11 -10 15 -23 3 -15 20 -29 50 -41 39
-16 47 -24 52 -55 4 -20 9 -30 11 -23 3 6 11 12 19 12 8 0 14 -6 14 -12 1 -7
7 1 14 17 7 17 43 60 80 97 60 60 85 108 56 108 -5 0 -10 7 -10 15 0 8 -4 15
-8 15 -5 0 -14 12 -20 26 -7 14 -17 22 -22 19 -6 -3 -10 0 -10 8 0 22 -70 36
-96 19z m163 -134 c-3 -8 -6 -5 -6 6 -1 11 2 17 5 13 3 -3 4 -12 1 -19z m-177
-10 c0 -4 6 -8 14 -8 22 0 38 -24 24 -38 -7 -7 -8 -12 -2 -12 5 0 -4 -7 -20
-15 -33 -18 -39 -19 -31 -5 3 6 2 10 -4 10 -5 0 -12 -6 -14 -12 -4 -8 -6 -7
-6 3 -1 9 -7 22 -15 29 -23 18 0 60 30 58 13 -1 24 -6 24 -10z"/>
<path d="M7389 3214 c-1 -2 -2 -9 -3 -14 0 -6 -8 -15 -16 -21 -11 -8 -12 -12
-2 -16 6 -2 12 -11 12 -18 0 -8 9 -19 20 -25 11 -6 20 -17 20 -25 0 -8 5 -15
10 -15 6 0 10 -7 10 -16 0 -8 5 -12 10 -9 6 3 10 2 10 -4 0 -6 12 -24 28 -41
15 -17 37 -42 49 -55 14 -16 17 -26 10 -29 -9 -5 -9 -8 0 -12 10 -4 10 -8 0
-17 -27 -25 -54 -36 -64 -26 -16 16 -69 7 -65 -10 2 -8 -2 -17 -8 -21 -8 -5 0
-13 19 -21 17 -8 31 -17 31 -21 0 -12 73 0 81 14 5 7 9 9 9 3 0 -5 16 8 35 29
25 28 35 48 34 70 -2 36 -16 98 -18 76 0 -8 -10 4 -22 27 -12 24 -25 40 -30
37 -5 -3 -9 2 -9 10 0 9 -4 16 -9 16 -5 0 -13 9 -16 20 -4 11 -11 18 -16 15
-5 -4 -9 -2 -9 3 0 4 -13 24 -30 42 -16 18 -30 37 -30 41 0 7 -39 20 -41 13z"/>
<path d="M3448 3106 c-10 -7 -18 -20 -18 -29 0 -9 -9 -19 -20 -22 -11 -4 -18
-10 -16 -14 3 -4 -15 -29 -39 -56 -25 -27 -45 -52 -45 -56 0 -3 -7 -12 -15
-19 -9 -7 -13 -15 -10 -18 2 -3 -7 -15 -22 -28 -34 -29 -36 -55 -6 -77 13 -10
23 -13 23 -7 0 5 7 10 15 10 8 0 15 9 15 21 0 11 5 17 10 14 6 -3 10 -1 10 5
0 7 9 23 20 37 11 14 20 22 20 17 0 -10 27 33 36 58 3 10 9 16 13 13 4 -2 15
9 25 26 10 16 28 41 42 56 26 28 31 43 13 43 -8 0 -8 5 1 15 8 9 8 15 2 15 -6
0 -16 2 -24 5 -7 2 -21 -2 -30 -9z"/>
<path d="M3695 2947 c-5 -13 -10 -15 -15 -7 -4 7 -14 -4 -24 -29 -8 -23 -20
-41 -24 -41 -5 0 -19 -21 -32 -47 -13 -27 -30 -55 -38 -63 -8 -8 -21 -28 -28
-45 -7 -16 -13 -26 -14 -20 0 5 -8 -6 -19 -25 -11 -21 -15 -39 -10 -46 5 -6 6
-14 3 -17 -4 -3 5 -9 20 -13 14 -3 26 -9 26 -13 0 -4 16 -15 35 -24 19 -9 35
-21 35 -27 0 -5 6 -10 14 -10 7 0 19 -6 25 -14 16 -19 59 -26 71 -11 5 6 6 15
2 19 -4 4 -7 11 -7 16 0 9 -71 60 -84 60 -15 0 -50 45 -48 61 2 9 14 32 28 50
15 19 34 49 44 68 9 19 26 43 36 54 10 11 22 30 25 41 4 12 14 26 22 32 11 8
12 13 4 18 -7 4 -12 4 -12 -1 -1 -4 -7 6 -14 22 -12 26 -15 28 -21 12z"/>
<path d="M7060 2823 c0 -7 -9 -13 -20 -13 -17 0 -20 -7 -20 -41 0 -22 4 -38 8
-35 15 9 30 -100 17 -117 -10 -14 -19 -9 -63 34 -29 28 -52 47 -52 42 0 -4 -5
0 -10 9 -13 22 -61 17 -71 -8 -11 -28 -10 -34 5 -34 8 0 28 -11 43 -25 15 -13
43 -37 61 -52 18 -16 41 -36 52 -45 11 -10 24 -18 30 -18 13 0 35 -41 35 -65
0 -11 -7 -27 -15 -35 -20 -19 -23 -57 -5 -64 8 -3 19 3 24 12 6 9 11 12 11 5
0 -6 14 2 30 19 28 28 31 36 29 89 -1 32 -6 56 -11 53 -4 -3 -8 3 -9 13 0 10
-2 27 -4 38 -2 11 -8 56 -14 100 -5 44 -14 81 -20 83 -6 2 -11 11 -11 20 0 20
-20 54 -20 35z"/>
<path d="M6687 2713 c-4 -3 -7 -14 -7 -24 0 -9 -6 -20 -12 -22 -10 -4 -10 -6
0 -6 15 -1 16 -51 1 -51 -8 0 -9 -4 0 -13 6 -8 8 -17 4 -20 -3 -4 3 -10 13
-14 27 -10 53 -42 71 -85 8 -21 19 -35 24 -32 5 3 9 -3 9 -14 0 -30 31 -51 70
-46 50 6 60 11 54 29 -4 9 -1 15 7 15 7 0 3 7 -9 16 -12 8 -26 13 -31 10 -13
-8 -42 4 -35 15 3 5 -1 12 -10 15 -8 3 -18 19 -21 35 -4 16 -11 31 -16 34 -13
9 -11 42 4 65 10 17 9 22 -3 30 -8 5 -17 7 -21 5 -3 -3 -22 11 -42 30 -39 38
-40 38 -50 28z"/>
<path d="M3886 2679 c-9 -11 -12 -19 -7 -19 5 0 11 -9 14 -20 4 -15 13 -19 39
-18 44 2 73 -12 75 -38 2 -15 -5 -24 -19 -28 -12 -3 -25 -2 -28 2 -11 15 -62
32 -97 32 -40 0 -86 -39 -77 -65 4 -8 1 -15 -5 -15 -8 0 -8 -6 -2 -17 5 -10
12 -26 15 -36 3 -9 19 -20 36 -23 16 -4 30 -10 30 -15 0 -5 4 -9 10 -9 23 0
90 -36 94 -50 3 -11 6 -9 11 8 4 12 11 22 15 22 4 0 15 20 24 45 10 25 22 45
27 45 5 0 9 8 9 18 0 9 7 30 15 46 17 32 20 66 5 66 -5 0 -10 7 -10 15 0 9
-11 21 -25 27 -14 6 -25 15 -25 19 0 7 -40 19 -85 23 -13 2 -30 -5 -39 -15z
m66 -190 c-3 -31 -15 -41 -47 -41 -32 0 -44 10 -47 41 -2 19 3 26 22 31 42 11
75 -3 72 -31z m-42 -69 c0 -5 -4 -10 -9 -10 -6 0 -13 5 -16 10 -3 6 1 10 9 10
9 0 16 -4 16 -10z"/>
<path d="M6539 2660 c-21 -21 -23 -28 -12 -38 7 -7 13 -9 13 -5 0 4 6 1 13 -8
11 -15 14 -14 28 5 14 19 14 23 0 46 l-16 25 -26 -25z"/>
<path d="M7219 2683 c0 -5 -2 -17 -4 -28 -4 -22 13 -48 26 -39 5 3 13 -5 18
-18 6 -13 10 -17 10 -10 1 7 6 10 11 7 6 -4 8 -10 6 -14 -3 -4 -1 -13 4 -21 7
-12 10 -12 16 3 8 22 -4 89 -15 82 -5 -3 -12 6 -15 20 -5 18 -13 25 -31 25
-14 0 -25 -3 -26 -7z"/>
<path d="M4128 2578 c-3 -7 -6 -49 -7 -93 -1 -45 -6 -97 -11 -118 -4 -21 -4
-37 1 -37 4 0 6 -6 3 -14 -6 -16 11 -29 41 -32 22 -1 48 24 67 67 7 16 19 29
25 29 7 0 13 5 13 11 0 5 5 7 11 4 7 -5 9 -35 6 -83 -3 -54 0 -80 9 -89 15
-15 38 -18 29 -3 -3 6 -1 10 4 10 6 0 11 -5 11 -10 0 -6 13 2 28 17 16 15 27
31 25 34 -1 4 9 14 23 24 14 9 23 19 21 22 -3 3 14 24 37 48 57 56 63 73 30
85 -22 9 -30 6 -55 -19 -16 -16 -29 -35 -29 -41 0 -6 -5 -8 -10 -5 -6 3 -15
-6 -20 -20 -9 -23 -12 -25 -25 -11 -17 17 -22 111 -5 101 6 -4 10 7 10 24 0
17 -3 31 -7 32 -5 0 -19 2 -31 5 -25 4 -80 -32 -81 -53 -1 -7 -5 -13 -10 -13
-5 0 -13 -9 -16 -20 -3 -11 -11 -20 -16 -20 -6 0 -7 5 -4 10 3 6 1 10 -4 10
-16 0 -14 97 2 103 10 4 10 6 0 6 -7 1 -13 12 -13 26 0 26 -14 33 -26 14 -5
-8 -9 -8 -14 1 -5 9 -8 8 -12 -2z"/>
<path d="M6575 2554 c-14 -11 -16 -18 -7 -21 6 -3 12 -12 12 -21 0 -25 33
-115 47 -130 7 -7 13 -21 13 -30 1 -28 24 -57 48 -59 16 -2 22 2 22 16 0 11 6
22 13 24 10 4 10 6 0 6 -7 1 -13 12 -13 25 0 14 -4 27 -9 31 -5 3 -12 19 -16
35 -4 17 -10 30 -14 30 -5 0 -14 20 -21 45 -7 25 -21 50 -31 55 -22 12 -20 13
-44 -6z"/>
<path d="M4726 2505 c-5 -15 -9 -17 -15 -6 -10 16 -13 7 -31 -84 -7 -33 -16
-63 -21 -66 -5 -3 -10 -46 -11 -96 -1 -91 -1 -92 31 -124 25 -25 47 -35 94
-44 75 -14 111 -6 147 34 20 21 29 45 34 85 4 31 11 54 15 51 5 -2 11 25 15
62 4 36 10 71 14 77 20 32 -9 69 -46 59 -17 -4 -22 -13 -23 -42 0 -28 -2 -32
-8 -16 -6 15 -10 4 -14 -40 -19 -185 -35 -215 -108 -209 -76 7 -95 59 -64 174
8 30 15 74 15 97 0 24 5 43 13 46 9 3 8 8 -4 18 -9 8 -19 21 -21 28 -3 11 -6
10 -12 -4z"/>
<path d="M6406 2512 c-16 -2 -35 -10 -43 -18 -8 -8 -20 -14 -28 -14 -7 0 -15
-6 -18 -14 -6 -16 -51 -26 -68 -15 -7 4 -18 5 -24 1 -5 -4 -12 -7 -15 -8 -20
-4 -39 -18 -34 -25 3 -5 -5 -9 -18 -9 -18 0 -20 2 -8 10 12 8 10 10 -8 10 -13
0 -20 -4 -17 -10 3 -5 -3 -10 -14 -10 -16 0 -21 -6 -21 -25 0 -14 3 -25 8 -25
4 0 13 -33 19 -74 16 -97 35 -143 60 -141 32 2 44 16 41 50 -1 19 -5 32 -9 29
-7 -4 -22 63 -23 96 0 36 17 60 47 69 26 7 35 5 49 -10 9 -11 21 -19 26 -19 5
0 12 -7 16 -15 4 -11 23 -15 81 -15 41 0 75 -4 75 -9 0 -5 7 -11 17 -13 12 -2
8 -7 -13 -18 -16 -8 -32 -20 -36 -27 -9 -12 -51 -6 -43 7 3 4 -6 10 -20 12
-20 4 -28 -1 -39 -23 -13 -25 -13 -29 0 -29 8 0 14 -4 14 -10 0 -6 27 -10 61
-10 37 0 58 4 54 10 -3 6 3 10 14 10 12 0 21 5 21 11 0 5 4 8 9 5 13 -8 61 59
61 84 0 12 -4 18 -10 15 -5 -3 -10 3 -10 14 0 26 -46 39 -113 33 -27 -2 -60
-1 -74 3 -20 5 -23 8 -13 20 10 12 10 15 -1 15 -8 1 -3 7 10 14 13 7 42 11 65
9 41 -4 84 13 59 24 -7 2 -13 11 -13 18 0 14 -31 22 -74 17z"/>
<path d="M5357 2420 c-6 -24 3 -40 24 -40 12 0 16 -5 13 -15 -4 -8 -1 -15 5
-15 6 0 11 9 11 20 0 10 8 24 18 29 16 10 16 10 0 11 -10 0 -17 5 -15 12 3 19
-51 17 -56 -2z"/>
<path d="M5883 2374 c4 -4 -8 -14 -26 -23 -23 -12 -36 -28 -47 -61 -8 -25 -19
-48 -24 -51 -4 -4 -2 -9 5 -12 12 -5 12 -7 0 -15 -7 -5 -9 -11 -5 -13 5 -2 20
-25 33 -52 21 -41 30 -49 70 -61 52 -15 105 -6 133 24 9 10 23 21 30 24 10 5
10 7 1 12 -7 3 -13 14 -13 25 0 10 -4 19 -10 19 -5 0 -10 -4 -10 -10 0 -5 -7
-10 -15 -10 -8 0 -15 -4 -15 -9 0 -5 -10 -13 -22 -17 -13 -4 -25 -10 -28 -14
-3 -5 -18 2 -34 15 -23 18 -26 26 -18 41 6 11 13 18 16 17 16 -7 36 -2 34 10
-2 7 9 13 26 15 18 2 26 0 21 -7 -4 -7 5 -11 24 -11 26 0 31 4 31 24 0 13 6
27 13 30 10 5 10 7 0 12 -7 3 -13 12 -13 20 0 8 -5 14 -11 14 -5 0 -7 5 -4 10
3 6 -7 18 -24 28 -17 9 -31 20 -31 25 0 4 -21 7 -47 7 -25 0 -43 -3 -40 -6z
m67 -61 c29 -25 27 -63 -4 -63 -13 0 -30 -2 -38 -5 -18 -6 -56 24 -42 33 6 4
16 17 23 30 14 26 34 28 61 5z"/>
<path d="M5705 2336 c-16 -7 -29 -17 -27 -22 2 -5 -1 -25 -6 -44 -6 -19 -16
-55 -22 -79 -11 -40 -13 -43 -23 -25 -6 10 -18 26 -26 34 -9 8 -17 22 -19 30
-4 24 -46 100 -55 100 -4 0 -5 -4 -2 -10 3 -5 2 -10 -4 -10 -5 0 -12 6 -14 13
-4 10 -6 10 -6 0 -1 -7 -9 -13 -18 -14 -11 0 -13 -3 -5 -6 6 -2 12 -9 12 -15
0 -16 44 -108 52 -108 3 0 9 -13 13 -30 4 -16 11 -30 16 -30 5 0 9 -9 9 -20 0
-11 5 -20 10 -20 6 0 10 -6 10 -14 0 -33 67 -25 76 10 3 13 10 24 14 24 5 0
14 26 20 58 19 94 22 102 31 96 14 -8 15 74 1 88 -4 3 -20 1 -37 -6z"/>
<path d="M5060 2326 c0 -9 -3 -16 -7 -16 -5 0 -8 -12 -8 -27 -1 -16 -5 -73 -9
-129 -8 -97 -7 -101 13 -107 40 -10 58 21 60 107 2 76 14 106 40 106 5 0 12 8
14 18 4 15 5 15 6 0 0 -9 11 -18 24 -20 21 -3 22 -8 24 -93 1 -49 2 -100 2
-111 1 -15 9 -23 25 -26 33 -7 43 18 49 121 7 114 0 150 -29 157 -13 3 -21 10
-18 15 3 5 -14 9 -38 9 -31 0 -39 -3 -28 -10 11 -7 4 -10 -27 -10 -23 0 -43 4
-45 9 -1 4 -13 12 -25 15 -17 6 -23 3 -23 -8z"/>
<path d="M5390 2320 c0 -5 -6 -10 -14 -10 -23 0 -9 -247 15 -273 17 -18 17
-18 28 0 8 14 11 15 12 3 0 -8 4 -5 7 8 4 12 5 73 2 135 -4 88 -9 117 -22 130
-19 19 -28 22 -28 7z"/>
</g>
</svg>
